<svg fill="none" xmlns="http://www.w3.org/2000/svg" viewBox="0 0 20 20">
  <g clip-path="url(#go41OLPV1dVQa)">
    <path d="M4.167 12.5c-.777 0-1.165 0-1.471-.127a1.666 1.666 0 01-.902-.902c-.127-.306-.127-.694-.127-1.471V4.333c0-.933 0-1.4.181-1.756.16-.314.415-.569.729-.729.356-.181.823-.181 1.756-.181H10c.777 0 1.165 0 1.471.127.409.169.733.493.902.902.127.306.127.694.127 1.47m-2.333 14.167h5.5c.933 0 1.4 0 1.756-.181.314-.16.569-.415.729-.729.181-.356.181-.823.181-1.756v-5.5c0-.934 0-1.4-.181-1.757a1.667 1.667 0 00-.729-.728C17.067 7.5 16.6 7.5 15.667 7.5h-5.5c-.934 0-1.4 0-1.757.182-.314.16-.569.414-.728.728-.182.357-.182.823-.182 1.757v5.5c0 .933 0 1.4.182 1.756.16.314.414.569.728.729.357.181.823.181 1.757.181z" stroke="#344054" stroke-width="1.667" stroke-linecap="round" stroke-linejoin="round"/>
  </g>
  <defs>
    <clipPath id="go41OLPV1dVQa">
      <path fill="#fff" d="M0 0h20v20H0z"/>
    </clipPath>
  </defs>
</svg>
