<svg fill="none" xmlns="http://www.w3.org/2000/svg" viewBox="0 0 24 24">
  <path d="M11.621 9.497l.17-.348c.975-2.036 2.766-6.213 3.099-6.72.353-.54.862-.83 1.708-.467.845.364.919 1.327.362 2.341-.556 1.015-1.612 4.79-2.104 6.607-.865 3.187-1.92 5.23-1.92 5.23l-2.591-3.453 1.276-3.19z" fill="url(#3EO6hKtXABura)"/>
  <path opacity=".75" d="M15.689 2.08c.136-.23.713.001.955.28.242.277.328.69.192.92-.136.23-.48.05-.782-.105-.524-.268-.502-.864-.365-1.094z" fill="url(#3EO6hKtXABurb)"/>
  <path d="M14.89 2.427c-.172.263-.736 1.51-1.375 2.934-.594 1.326-.626 2.878.819-1.214.601-1.704 1.45-2.343 1.763-2.329-.555-.078-.93.187-1.207.61z" fill="url(#3EO6hKtXABurc)"/>
  <path d="M14.856 10.909c.492-1.816 1.548-5.592 2.104-6.607.302-.55.411-1.082.32-1.515-.568 1.53-1.99 3.565-2.523 5.646-1 3.914-.464 4.553.099 2.476z" fill="url(#3EO6hKtXABurd)"/>
  <path d="M11.621 9.497l.17-.348c.975-2.036 2.766-6.213 3.099-6.72.353-.54.862-.83 1.708-.467.845.364.919 1.327.362 2.341-.556 1.015-1.612 4.79-2.104 6.607-.865 3.187-1.92 5.23-1.92 5.23l-2.591-3.453 1.276-3.19z" fill="url(#3EO6hKtXABure)"/>
  <path d="M14.76 2.662c-.223.436-.631 1.333-1.098 2.371l.263.617 1.3 3.64s.038-.02.094-.053c.243-.858.52-1.802.789-2.65-.69-.954-1.277-2.643-1.347-3.925z" fill="url(#3EO6hKtXABurf)"/>
  <path d="M12.79 6.979c-.201.445-.398.878-.582 1.277.559 1.079.265 3.271-.219 4.017-.416.642 1.209.958 2.103 1.08.25-.706.515-1.525.764-2.444l.055-.203.1-1.01-2.222-2.717z" fill="url(#3EO6hKtXABurg)"/>
  <path d="M13.913 12.443c-.02-.118-.316-1.605-.341-1.741-.408-2.22-1.695-6.726-1.725-7.332-.031-.644.21-1.179 1.108-1.381.898-.203 1.523.533 1.67 1.68.146 1.148 1.642 4.677 2.338 6.425 1.257 3.161 1.366 5.516 1.366 5.516L14.2 14.34l-.288-1.897z" fill="url(#3EO6hKtXABurh)"/>
  <path opacity=".75" d="M12.29 2.62c-.026-.266.577-.418.937-.336.36.083.671.366.697.633.025.266-.359.322-.695.375-.581.09-.914-.405-.94-.671z" fill="url(#3EO6hKtXABuri)"/>
  <path d="M12.466 2.168c-.495.263-.643.698-.618 1.202.029.607 1.316 5.112 1.724 7.333.025.135.32 1.623.34 1.74l.26 1.698c.633 1.023 1.304-.591-1.764-9.053-.616-1.698-.204-2.748.058-2.92z" fill="url(#3EO6hKtXABurj)"/>
  <path d="M16.96 10.085c-.698-1.752-2.19-5.27-2.335-6.416v-.001a3.3 3.3 0 00-.085-.431c-.005-.02-.013-.038-.019-.058a2.6 2.6 0 00-.118-.333l-.01-.022a1.727 1.727 0 00-.401-.568c.44 1.571.486 4.053 1.279 6.05 1.491 3.754.645 4.032.229 4.58v.001c.879-.016 2.116 2.433 2.828 2.723-.087-.135-.131-.408-.148-.77-.037-1.129-.575-2.924-1.22-4.755z" fill="url(#3EO6hKtXABurk)"/>
  <path d="M5.522 15.189c0 .692.34 1.003.51 1.115a.615.615 0 00.094.053l3.166 2.29 5.795-1.188-.178-3.666c-3.127-.4-5.952-1.905-9.196-2.17-.357 1.162-.19 2.758-.19 3.566z" fill="url(#3EO6hKtXABurl)"/>
  <path d="M11.694 15.297c1.427-.15 2.332 1.018 2.446 1.626l.466-.17-.212-2.332-1.512-.975-2.021-.51-2.05-1.073-.391-1.225-.12-.001-1.965.2c-.212.08-.366.183-.435.32-.262.509-.362 1.171-.397 1.832.307.617.997.937 1.598.937.707 0 1.13-.537 1.385-.989 0 0 .046.82 1.182 1.13 0 0 .845 1.355 2.026 1.23z" fill="url(#3EO6hKtXABurm)"/>
  <path d="M7.085 13.644c-.833 0-1.522-.679-1.637-1.95-.013-.14-.246-2.63 1.177-2.63 1.32 0 1.694.51 1.78 2.205.087 1.696-.459 2.375-1.32 2.375z" fill="url(#3EO6hKtXABurn)"/>
  <path d="M10.24 13.842c-1.029 0-1.542-.45-1.685-1.738-.143-1.286-.762-3.604 1.126-3.728 1.81-.12 1.844 1 1.844 2.866 0 1.865-.4 2.6-1.285 2.6z" fill="url(#3EO6hKtXABuro)"/>
  <path d="M10.182 12.06c-.786.396-1.314.404-1.65-.136l.023.18c.143 1.286.656 1.738 1.685 1.738.723 0 1.122-.492 1.244-1.688-.203-.348-.84-.326-1.302-.093z" fill="url(#3EO6hKtXABurp)"/>
  <path d="M7.056 12.004c-.7 0-1.28-.435-1.377-1.252.038.317-.255-1.688.99-1.688 1.112 0 1.426.327 1.499 1.416.072 1.088-.387 1.524-1.112 1.524z" fill="url(#3EO6hKtXABurq)"/>
  <path d="M10.097 11.92c-.843 0-1.223-.444-1.366-1.355-.074-.468-.553-2.103.995-2.191 1.485-.085 1.485 1 1.516 1.921.045 1.326-.419 1.626-1.145 1.626z" fill="url(#3EO6hKtXABurr)"/>
  <path d="M9.626 13.766c.181.05.383.077.614.077.885 0 1.285-.735 1.285-2.6 0-1.799-.037-2.9-1.66-2.871.638.38 1.16 1.247 1.16 2.814 0 2.229-.5 2.576-1.399 2.58z" fill="url(#3EO6hKtXABurs)"/>
  <path d="M9.669 13.154c0-.754.533-.778 1.96-.905 1.02-.09 2.13-.358 3.543.189 1.612.623 3.128 1.526 3.147 3.147.016 1.45-1.112 6.614-6.05 6.614-4.937 0-6.596-2.638-6.746-7.01l8.617 1.733s.183-1.54-.872-1.997c-.45-.195-1.413-.038-2.054-.038-.64 0-1.545-.716-1.545-1.733z" fill="url(#3EO6hKtXABurt)"/>
  <path d="M15.793 18.93c-2.091 1.526-1.922 2.374-3.872 2.374s-3.209-1.031-4.1-1.922c-.89-.89-1.639-2.374-2.006-3.505a3.956 3.956 0 00-.292-.68c.153 4.367 1.812 7.003 6.746 7.003 4.938 0 6.066-5.164 6.05-6.615-.008-.635-.247-1.158-.629-1.599.109 2.073-.178 3.69-1.897 4.944z" fill="url(#3EO6hKtXABuru)"/>
  <path d="M7.092 12.852c-.847 0-1.547-.673-1.692-1.93.006.253.025.514.048.771.115 1.273.804 1.95 1.637 1.95.808 0 1.33-.608 1.322-2.082-.172.905-.653 1.291-1.315 1.291z" fill="url(#3EO6hKtXABurv)"/>
  <path d="M8.405 11.27c-.082-1.615-.426-2.152-1.6-2.2.615.101 1.808 2.474.166 4.563.038.003.075.012.113.012.862 0 1.408-.678 1.321-2.374z" fill="url(#3EO6hKtXABurw)"/>
  <path d="M14.644 15.417c-.038-.905-1.15-1.81-2.073-1.715-.798.081-2.241.19-2.886-.401.082.938.92 1.588 1.529 1.588.64 0 1.604-.157 2.054.038 1.055.457.872 1.997.872 1.997s.541-.603.504-1.507z" fill="url(#3EO6hKtXABurx)"/>
  <path d="M18.319 15.585c-.02-1.62-1.535-2.524-3.148-3.147-1.413-.547-2.522-.28-3.542-.189-1.089.097-1.655.136-1.863.483 1.341-.332 2.598-.467 4.147-.29 2.018.231 3.544 1.475 3.822 2.427.273.94.234 2.691.233 2.733.26-.843.356-1.59.35-2.017z" fill="url(#3EO6hKtXABury)"/>
  <path d="M14.14 16.924a2.817 2.817 0 00-.122-1.09c-.112-.344-.333-.67-.66-.831-.317-.178-.706-.145-1.067-.137-.367.015-.733.058-1.106.056-.767-.068-1.39-.721-1.53-1.459a1.49 1.49 0 01-.006-.567.627.627 0 01.367-.44c.357-.152.732-.17 1.098-.213.736-.046 1.46-.178 2.206-.182a5.158 5.158 0 012.161.463c.678.288 1.348.627 1.906 1.12.558.485.944 1.195.932 1.941-.006-.747-.405-1.436-.966-1.902-.555-.48-1.222-.813-1.899-1.094a5.067 5.067 0 00-2.133-.44c-.73.01-1.463.149-2.197.2-.363.039-.74.058-1.066.195a.528.528 0 00-.319.373c-.035.17-.03.355.002.53.123.7.728 1.338 1.446 1.404.364.005.733-.035 1.102-.047.362-.003.757-.039 1.094.153.336.178.555.518.66.87.11.354.13.73.097 1.097zm-5.788-6.288c.068.54.136 1.088.052 1.635a2.328 2.328 0 01-.237.791c-.127.25-.35.457-.617.559a1.473 1.473 0 01-1.54-.411c-.386-.412-.53-.978-.562-1.516.073.534.241 1.079.613 1.467.362.397.96.533 1.453.36.512-.173.746-.742.82-1.26.087-.535.045-1.081.018-1.624z" fill="#975500"/>
  <path d="M9.834 13.808c-.173.056-.332-.022-.477-.096a1.331 1.331 0 01-.386-.309c-.219-.252-.332-.568-.401-.88-.063-.318-.071-.634-.116-.947-.039-.314-.073-.63-.087-.947.04.314.095.626.146.938.06.311.087.631.16.932.07.302.184.6.387.827.1.113.22.207.354.276.136.073.282.092.42.206zm.699-5.372c.174.044.344.116.487.232.144.116.245.277.318.444.148.337.188.705.22 1.064.017.361.018.722.01 1.08-.003.18.001.36-.008.54-.006.091-.007.183-.028.274-.016.079-.057.211-.167.203.09-.032.088-.134.108-.214.01-.087.02-.175.02-.264.003-.178-.007-.357-.011-.538-.01-.36-.006-.718-.03-1.075-.02-.354-.044-.716-.174-1.045a1.146 1.146 0 00-.745-.701z" fill="#975500"/>
  <path d="M11.694 15.299c-1.181.124-2.025-1.23-2.025-1.23-1.136-.311-1.183-1.13-1.183-1.13-.254.451-.678.989-1.385.989-.601 0-1.291-.32-1.598-.938.008-.137.02-.274.034-.41H5.53a10.36 10.36 0 00-.045 1.116c.608.697 1.56.796 2.169.616.164-.048.934-.629 1.528-.045.644.633 1.392 1.441 2.679 1.413 1.286-.028 2.278 1.244 2.278 1.244-.113-.608-1.019-1.776-2.446-1.625z" fill="url(#3EO6hKtXABurz)"/>
  <path opacity=".75" d="M6.432 15.338c-.453.546.925 3.69 2.286 4.481 1.36.792 3.065.549 3.398-.08.332-.63-1.082-1.607-2.24-2.69-1.995-1.869-2.99-2.256-3.444-1.71z" fill="url(#3EO6hKtXABurA)"/>
  <path opacity=".75" d="M17.52 15.742c.241-.325-.964-2.337-1.926-2.88-.962-.542-2.856-.22-3.01.161-.154.381 1.671.81 2.53 1.528 1.48 1.238 2.165 1.515 2.406 1.19z" fill="url(#3EO6hKtXABurB)"/>
  <path d="M12.744 7.125l.653 2.467c.098.414.198.828.279 1.246.04.21.078.42.112.63.031.21.076.42.06.636-.069-.205-.084-.417-.127-.625a17 17 0 00-.131-.622 57.917 57.917 0 00-.296-1.24c-.185-.83-.401-1.654-.55-2.492z" fill="#975500"/>
  <defs>
    <linearGradient id="3EO6hKtXABura" x1="7.466" y1="23.375" x2="10.624" y2="16.456" gradientUnits="userSpaceOnUse">
      <stop offset=".001" stop-color="#FFBA47"/>
      <stop offset="1" stop-color="#FFD748"/>
    </linearGradient>
    <linearGradient id="3EO6hKtXABurd" x1="12.046" y1="-2.776" x2="21.724" y2="23.715" gradientUnits="userSpaceOnUse">
      <stop stop-color="#FFBC47" stop-opacity="0"/>
      <stop offset="1" stop-color="#FFBC47"/>
    </linearGradient>
    <linearGradient id="3EO6hKtXABure" x1="18.047" y1="1.013" x2="8.014" y2="21.06" gradientUnits="userSpaceOnUse">
      <stop stop-color="#FFBC47" stop-opacity="0"/>
      <stop offset="1" stop-color="#C86F34"/>
    </linearGradient>
    <linearGradient id="3EO6hKtXABurf" x1="15.525" y1="2.52" x2="14.405" y2="8.278" gradientUnits="userSpaceOnUse">
      <stop stop-color="#FFBC47" stop-opacity="0"/>
      <stop offset="1" stop-color="#C86F34"/>
    </linearGradient>
    <linearGradient id="3EO6hKtXABurg" x1="11.577" y1="13.575" x2="14.894" y2="7.507" gradientUnits="userSpaceOnUse">
      <stop stop-color="#FFBC47" stop-opacity="0"/>
      <stop offset="1" stop-color="#C86F34"/>
    </linearGradient>
    <linearGradient id="3EO6hKtXABurh" x1="17.731" y1="16.532" x2="15.078" y2="10.384" gradientUnits="userSpaceOnUse">
      <stop offset=".001" stop-color="#FFBA47"/>
      <stop offset="1" stop-color="#FFD748"/>
    </linearGradient>
    <linearGradient id="3EO6hKtXABurk" x1="16.796" y1="7.483" x2="6.512" y2="30.964" gradientUnits="userSpaceOnUse">
      <stop stop-color="#FFBC47" stop-opacity="0"/>
      <stop offset="1" stop-color="#FFBC47"/>
    </linearGradient>
    <linearGradient id="3EO6hKtXABurl" x1="5.847" y1="15.135" x2="17.802" y2="15.135" gradientUnits="userSpaceOnUse">
      <stop offset=".001" stop-color="#FFCB4B"/>
      <stop offset="1" stop-color="#FFD748"/>
    </linearGradient>
    <linearGradient id="3EO6hKtXABurm" x1="9.349" y1="20.777" x2="10.649" y2="9.753" gradientUnits="userSpaceOnUse">
      <stop stop-color="#A1541E" stop-opacity="0"/>
      <stop offset="1" stop-color="#C86F34"/>
    </linearGradient>
    <linearGradient id="3EO6hKtXABurn" x1="6.92" y1="10.958" x2="6.92" y2="16.195" gradientUnits="userSpaceOnUse">
      <stop offset=".001" stop-color="#FFCB4B"/>
      <stop offset="1" stop-color="#FFD748"/>
    </linearGradient>
    <linearGradient id="3EO6hKtXABuro" x1="9.934" y1="10.959" x2="9.934" y2="16.196" gradientUnits="userSpaceOnUse">
      <stop offset=".001" stop-color="#FFCB4B"/>
      <stop offset="1" stop-color="#FFD748"/>
    </linearGradient>
    <linearGradient id="3EO6hKtXABurp" x1="10.008" y1="10.828" x2="10.008" y2="17.767" gradientUnits="userSpaceOnUse">
      <stop stop-color="#FFBC47" stop-opacity="0"/>
      <stop offset="1" stop-color="#C86F34"/>
    </linearGradient>
    <linearGradient id="3EO6hKtXABurq" x1="6.925" y1="11.721" x2="6.925" y2="7.701" gradientUnits="userSpaceOnUse">
      <stop offset=".001" stop-color="#FFCB4B"/>
      <stop offset="1" stop-color="#FFD748"/>
    </linearGradient>
    <linearGradient id="3EO6hKtXABurr" x1="9.924" y1="11.723" x2="9.924" y2="7.702" gradientUnits="userSpaceOnUse">
      <stop offset=".001" stop-color="#FFCB4B"/>
      <stop offset="1" stop-color="#FFD748"/>
    </linearGradient>
    <linearGradient id="3EO6hKtXABurs" x1="7.908" y1="9.848" x2="20.821" y2="17.184" gradientUnits="userSpaceOnUse">
      <stop stop-color="#FFBC47" stop-opacity="0"/>
      <stop offset="1" stop-color="#C86F34"/>
    </linearGradient>
    <linearGradient id="3EO6hKtXABurt" x1="5.847" y1="17.151" x2="17.802" y2="17.151" gradientUnits="userSpaceOnUse">
      <stop offset=".001" stop-color="#FFCB4B"/>
      <stop offset="1" stop-color="#FFD748"/>
    </linearGradient>
    <linearGradient id="3EO6hKtXABurv" x1="6.876" y1="10.826" x2="7.234" y2="16.765" gradientUnits="userSpaceOnUse">
      <stop stop-color="#FFBC47" stop-opacity="0"/>
      <stop offset="1" stop-color="#C86F34"/>
    </linearGradient>
    <linearGradient id="3EO6hKtXABurw" x1="3.735" y1="9.174" x2="23.663" y2="21.829" gradientUnits="userSpaceOnUse">
      <stop stop-color="#FFBC47" stop-opacity="0"/>
      <stop offset="1" stop-color="#C86F34"/>
    </linearGradient>
    <linearGradient id="3EO6hKtXABury" x1="14.716" y1="11.053" x2="12.756" y2="20.815" gradientUnits="userSpaceOnUse">
      <stop stop-color="#FFBC47" stop-opacity="0"/>
      <stop offset="1" stop-color="#FFBC47"/>
    </linearGradient>
    <linearGradient id="3EO6hKtXABurz" x1="8.973" y1="17.385" x2="11.714" y2="9.018" gradientUnits="userSpaceOnUse">
      <stop stop-color="#FFBC47" stop-opacity="0"/>
      <stop offset="1" stop-color="#C86F34"/>
    </linearGradient>
    <radialGradient id="3EO6hKtXABurb" cx="0" cy="0" r="1" gradientUnits="userSpaceOnUse" gradientTransform="matrix(-.54946 -.63132 .3356 -.29208 16.244 2.7)">
      <stop stop-color="#FBE07A"/>
      <stop offset=".265" stop-color="#FCDF73" stop-opacity=".735"/>
      <stop offset=".655" stop-color="#FDDB5F" stop-opacity=".345"/>
      <stop offset="1" stop-color="#FFD748" stop-opacity="0"/>
    </radialGradient>
    <radialGradient id="3EO6hKtXABurc" cx="0" cy="0" r="1" gradientUnits="userSpaceOnUse" gradientTransform="matrix(-2.0644 9.18892 -6.78295 -1.52388 15.037 -.723)">
      <stop offset=".139" stop-color="#FFBC47" stop-opacity="0"/>
      <stop offset="1" stop-color="#FF8900"/>
    </radialGradient>
    <radialGradient id="3EO6hKtXABuri" cx="0" cy="0" r="1" gradientUnits="userSpaceOnUse" gradientTransform="matrix(-.81576 -.1877 .0998 -.43371 13.102 2.793)">
      <stop stop-color="#FBE07A"/>
      <stop offset=".265" stop-color="#FCDF73" stop-opacity=".735"/>
      <stop offset=".655" stop-color="#FDDB5F" stop-opacity=".345"/>
      <stop offset="1" stop-color="#FFD748" stop-opacity="0"/>
    </radialGradient>
    <radialGradient id="3EO6hKtXABurj" cx="0" cy="0" r="1" gradientUnits="userSpaceOnUse" gradientTransform="matrix(25.7053 0 0 25.7042 11.893 1.352)">
      <stop offset=".139" stop-color="#FFBC47" stop-opacity="0"/>
      <stop offset="1" stop-color="#FF8900"/>
    </radialGradient>
    <radialGradient id="3EO6hKtXABuru" cx="0" cy="0" r="1" gradientUnits="userSpaceOnUse" gradientTransform="matrix(21.4301 0 0 21.4292 11.708 4.627)">
      <stop offset=".613" stop-color="#FFBC47" stop-opacity="0"/>
      <stop offset="1" stop-color="#FF8900"/>
    </radialGradient>
    <radialGradient id="3EO6hKtXABurx" cx="0" cy="0" r="1" gradientUnits="userSpaceOnUse" gradientTransform="matrix(13.966 0 0 5.9799 13.333 12.511)">
      <stop stop-color="#FFBC47" stop-opacity="0"/>
      <stop offset="1" stop-color="#FFA754"/>
    </radialGradient>
    <radialGradient id="3EO6hKtXABurA" cx="0" cy="0" r="1" gradientUnits="userSpaceOnUse" gradientTransform="rotate(-138.968 7.939 7.317) scale(3.96144 1.80764)">
      <stop stop-color="#FBE07A"/>
      <stop offset=".265" stop-color="#FCDF73" stop-opacity=".735"/>
      <stop offset=".655" stop-color="#FDDB5F" stop-opacity=".345"/>
      <stop offset="1" stop-color="#FFD748" stop-opacity="0"/>
    </radialGradient>
    <radialGradient id="3EO6hKtXABurB" cx="0" cy="0" r="1" gradientUnits="userSpaceOnUse" gradientTransform="matrix(2.40005 1.8895 -.69572 .88371 15.204 13.784)">
      <stop stop-color="#FBE07A"/>
      <stop offset=".265" stop-color="#FCDF73" stop-opacity=".735"/>
      <stop offset=".655" stop-color="#FDDB5F" stop-opacity=".345"/>
      <stop offset="1" stop-color="#FFD748" stop-opacity="0"/>
    </radialGradient>
  </defs>
</svg>
