<svg fill="none" xmlns="http://www.w3.org/2000/svg" viewBox="0 0 32 32">
  <path d="M15.495 12.662l.226-.464c1.3-2.715 3.689-8.284 4.132-8.96.47-.719 1.15-1.107 2.277-.622 1.128.485 1.225 1.769.484 3.121-.742 1.353-2.15 6.387-2.806 8.81-1.153 4.249-2.559 6.973-2.559 6.973l-3.456-4.605 1.702-4.253z" fill="url(#TD162yCyslGoa)"/>
  <path opacity=".75" d="M20.919 2.774c.181-.307.951 0 1.274.371.323.371.437.921.256 1.229-.182.307-.64.067-1.044-.14-.697-.358-.668-1.152-.486-1.46z" fill="url(#TD162yCyslGob)"/>
  <path d="M19.854 3.236c-.23.35-.981 2.013-1.833 3.912-.793 1.768-.835 3.838 1.091-1.62.802-2.271 1.934-3.123 2.351-3.104-.74-.103-1.24.25-1.61.812z" fill="url(#TD162yCyslGoc)"/>
  <path d="M19.808 14.544c.657-2.422 2.064-7.456 2.806-8.809.402-.734.547-1.443.425-2.02-.756 2.04-2.653 4.753-3.363 7.528-1.334 5.218-.62 6.07.132 3.301z" fill="url(#TD162yCyslGod)"/>
  <path d="M15.495 12.662l.226-.464c1.3-2.715 3.689-8.284 4.132-8.96.47-.719 1.15-1.107 2.277-.622 1.128.485 1.225 1.769.484 3.121-.742 1.353-2.15 6.387-2.806 8.81-1.153 4.249-2.559 6.973-2.559 6.973l-3.456-4.605 1.702-4.253z" fill="url(#TD162yCyslGoe)"/>
  <path d="M19.68 3.549c-.298.58-.842 1.778-1.464 3.161l.35.822 1.735 4.855.124-.072c.323-1.143.692-2.403 1.052-3.534-.921-1.27-1.703-3.523-1.797-5.232z" fill="url(#TD162yCyslGof)"/>
  <path d="M17.053 9.305c-.268.593-.53 1.172-.775 1.703.744 1.438.353 4.361-.292 5.356-.554.856 1.611 1.277 2.803 1.44.335-.942.687-2.034 1.019-3.258l.074-.27.132-1.348-2.961-3.623z" fill="url(#TD162yCyslGog)"/>
  <path d="M18.55 16.589c-.026-.157-.421-2.14-.454-2.321-.544-2.96-2.26-8.968-2.3-9.776-.041-.858.28-1.572 1.477-1.842s2.031.71 2.227 2.241c.195 1.53 2.19 6.235 3.117 8.567 1.676 4.214 1.821 7.354 1.821 7.354l-5.503-1.693-.385-2.53z" fill="url(#TD162yCyslGoh)"/>
  <path opacity=".75" d="M16.386 3.494c-.034-.355.77-.559 1.25-.448.479.11.895.487.928.843.034.356-.477.43-.926.5-.775.12-1.218-.54-1.252-.895z" fill="url(#TD162yCyslGoi)"/>
  <path d="M16.62 2.89c-.659.352-.856.932-.824 1.604.04.808 1.756 6.816 2.3 9.776.033.181.427 2.164.454 2.32l.345 2.264c.844 1.365 1.74-.788-2.35-12.07-.822-2.265-.273-3.664.076-3.893z" fill="url(#TD162yCyslGoj)"/>
  <path d="M22.612 13.447c-.93-2.336-2.918-7.027-3.113-8.555v-.001a4.41 4.41 0 00-.113-.575c-.007-.027-.017-.05-.025-.078a3.462 3.462 0 00-.157-.444l-.014-.028a2.303 2.303 0 00-.535-.758c.588 2.095.648 5.404 1.705 8.066 1.989 5.006.86 5.376.306 6.108 1.172-.02 2.821 3.245 3.771 3.632-.116-.181-.175-.545-.198-1.027-.05-1.505-.766-3.899-1.627-6.34z" fill="url(#TD162yCyslGok)"/>
  <path d="M7.362 20.25c0 .924.453 1.338.679 1.488.075.05.126.07.126.07l4.221 3.053 7.727-1.583-.237-4.888c-4.17-.535-7.936-2.54-12.261-2.894-.476 1.55-.255 3.677-.255 4.754z" fill="url(#TD162yCyslGol)"/>
  <path d="M15.59 20.396c1.904-.2 3.111 1.357 3.262 2.167l.622-.226-.282-3.11-2.017-1.3-2.695-.678-2.733-1.433-.521-1.632-.159-.002-2.62.268c-.284.104-.488.242-.581.424-.349.68-.482 1.563-.529 2.444.41.823 1.329 1.25 2.13 1.25.942 0 1.508-.716 1.847-1.32 0 0 .062 1.094 1.577 1.508 0 0 1.126 1.806 2.7 1.64z" fill="url(#TD162yCyslGom)"/>
  <path d="M9.447 18.192c-1.11 0-2.03-.905-2.182-2.6-.017-.186-.328-3.506 1.57-3.506 1.76 0 2.258.678 2.373 2.94.115 2.261-.612 3.166-1.761 3.166z" fill="url(#TD162yCyslGon)"/>
  <path d="M13.653 18.456c-1.37 0-2.056-.601-2.247-2.317-.19-1.715-1.015-4.806 1.502-4.971 2.413-.159 2.459 1.334 2.459 3.821s-.534 3.467-1.714 3.467z" fill="url(#TD162yCyslGoo)"/>
  <path d="M13.576 16.08c-1.048.529-1.752.54-2.2-.18.011.08.022.162.03.238.19 1.716.876 2.317 2.247 2.317.964 0 1.496-.654 1.659-2.25-.27-.463-1.119-.435-1.736-.124z" fill="url(#TD162yCyslGop)"/>
  <path d="M9.408 16.006c-.934 0-1.707-.581-1.836-1.67.05.422-.34-2.25 1.32-2.25 1.483 0 1.901.435 1.998 1.887.097 1.452-.516 2.033-1.482 2.033z" fill="url(#TD162yCyslGoq)"/>
  <path d="M13.463 15.893c-1.125 0-1.63-.592-1.822-1.806-.098-.625-.737-2.805 1.328-2.923 1.98-.112 1.98 1.334 2.02 2.563.06 1.767-.558 2.166-1.526 2.166z" fill="url(#TD162yCyslGor)"/>
  <path d="M12.835 18.354c.24.067.51.102.817.102 1.18 0 1.714-.98 1.714-3.467 0-2.398-.05-3.867-2.213-3.828.85.508 1.545 1.663 1.545 3.752 0 2.972-.666 3.435-1.864 3.44z" fill="url(#TD162yCyslGos)"/>
  <path d="M12.891 17.537c0-1.005.711-1.037 2.614-1.206 1.36-.121 2.839-.478 4.724.251 2.15.832 4.17 2.035 4.196 4.196.022 1.935-1.483 8.82-8.066 8.82-6.584 0-8.795-3.518-8.996-9.348l11.49 2.312s.245-2.054-1.162-2.663c-.6-.26-1.885-.05-2.74-.05-.854 0-2.06-.955-2.06-2.312z" fill="url(#TD162yCyslGot)"/>
  <path d="M21.058 25.24c-2.789 2.035-2.562 3.166-5.163 3.166-2.6 0-4.278-1.376-5.465-2.563-1.188-1.187-2.186-3.166-2.676-4.674a5.27 5.27 0 00-.39-.905c.204 5.822 2.417 9.335 8.996 9.335 6.583 0 8.088-6.884 8.066-8.819-.01-.846-.329-1.544-.839-2.132.145 2.764-.237 4.92-2.529 6.592z" fill="url(#TD162yCyslGou)"/>
  <path d="M9.457 17.137c-1.13 0-2.063-.899-2.256-2.575.007.338.033.686.063 1.03.154 1.695 1.072 2.6 2.183 2.6 1.077 0 1.775-.812 1.763-2.777-.23 1.207-.87 1.722-1.753 1.722z" fill="url(#TD162yCyslGov)"/>
  <path d="M11.207 15.027c-.109-2.154-.569-2.87-2.134-2.933.82.134 2.41 3.298.222 6.083.05.004.1.016.15.016 1.15 0 1.877-.904 1.762-3.166z" fill="url(#TD162yCyslGow)"/>
  <path d="M19.525 20.556c-.05-1.206-1.533-2.413-2.764-2.287-1.063.109-2.988.253-3.848-.535.11 1.25 1.227 2.118 2.039 2.118.854 0 2.138-.21 2.739.05 1.407.61 1.162 2.663 1.162 2.663s.722-.803.672-2.01z" fill="url(#TD162yCyslGox)"/>
  <path d="M24.424 20.779c-.024-2.162-2.045-3.365-4.196-4.197-1.884-.729-3.363-.372-4.724-.251-1.45.129-2.205.181-2.483.643 1.788-.442 3.464-.622 5.529-.386 2.691.308 4.726 1.967 5.096 3.235.365 1.254.312 3.59.31 3.645.348-1.123.475-2.12.468-2.69z" fill="url(#TD162yCyslGoy)"/>
  <path d="M18.853 22.564a3.756 3.756 0 00-.162-1.452c-.15-.46-.445-.892-.88-1.108-.423-.238-.942-.193-1.423-.183-.49.02-.977.077-1.475.074-1.023-.09-1.854-.96-2.04-1.944a1.988 1.988 0 01-.008-.757.836.836 0 01.49-.586c.475-.203.975-.226 1.463-.285.982-.06 1.948-.236 2.942-.242a6.872 6.872 0 012.881.617c.905.384 1.798.836 2.542 1.494.744.646 1.259 1.593 1.242 2.588-.008-.996-.54-1.916-1.288-2.537-.74-.64-1.629-1.083-2.531-1.458a6.76 6.76 0 00-2.845-.586c-.974.013-1.95.198-2.93.265-.483.052-.986.079-1.42.261a.705.705 0 00-.425.497c-.048.227-.04.474.002.708.163.933.971 1.783 1.928 1.87.485.008.977-.045 1.469-.062.483-.004 1.01-.052 1.459.205.448.236.74.69.88 1.159.146.473.174.974.129 1.462zm-7.717-8.382c.09.718.181 1.45.07 2.178-.05.362-.14.726-.316 1.056-.17.332-.466.608-.823.745-.722.237-1.56.015-2.053-.548-.515-.549-.707-1.305-.75-2.022.098.713.322 1.439.818 1.957.483.529 1.28.71 1.937.48.683-.231.994-.99 1.094-1.681.115-.713.06-1.441.023-2.165z" fill="#975500"/>
  <path d="M13.113 18.41c-.232.075-.443-.028-.637-.127a1.774 1.774 0 01-.515-.412c-.29-.336-.442-.757-.534-1.174-.083-.424-.095-.845-.154-1.262a16.19 16.19 0 01-.117-1.263c.054.42.127.835.195 1.251.08.415.116.842.214 1.243.094.402.245.799.515 1.102.133.15.294.276.473.368.18.098.376.122.56.274zm.931-7.164c.232.06.46.155.65.31.191.155.326.37.424.592.197.45.25.94.292 1.419.023.482.025.962.014 1.44-.003.239.002.48-.01.72-.009.121-.01.243-.037.364-.022.106-.077.283-.223.271.12-.042.117-.178.143-.285.015-.115.028-.233.028-.352.003-.238-.01-.476-.016-.717-.013-.48-.007-.958-.04-1.433-.027-.473-.058-.955-.232-1.393a1.528 1.528 0 00-.993-.936z" fill="#975500"/>
  <path d="M15.591 20.398c-1.574.166-2.7-1.64-2.7-1.64-1.514-.414-1.576-1.507-1.576-1.507-.34.603-.905 1.319-1.847 1.319-.802 0-1.721-.427-2.13-1.25.01-.182.026-.365.044-.546h-.007a13.815 13.815 0 00-.06 1.488c.81.929 2.08 1.06 2.891.821.22-.065 1.245-.839 2.037-.06.86.843 1.858 1.921 3.573 1.884 1.714-.038 3.037 1.658 3.037 1.658-.15-.81-1.358-2.368-3.262-2.167z" fill="url(#TD162yCyslGoz)"/>
  <path opacity=".75" d="M8.576 20.451c-.605.728 1.234 4.919 3.048 5.974 1.813 1.056 4.087.732 4.53-.107.443-.838-1.443-2.143-2.985-3.586-2.662-2.492-3.989-3.008-4.593-2.28z" fill="url(#TD162yCyslGoA)"/>
  <path opacity=".75" d="M23.36 20.99c.322-.434-1.284-3.116-2.567-3.84-1.283-.724-3.808-.294-4.014.214-.205.508 2.229 1.08 3.373 2.037 1.975 1.651 2.888 2.02 3.209 1.588z" fill="url(#TD162yCyslGoB)"/>
  <path d="M16.99 9.5l.872 3.29c.13.551.264 1.103.372 1.661.054.279.104.558.149.84.041.28.101.56.08.848-.092-.274-.112-.556-.17-.833a22.924 22.924 0 00-.174-.83 77.742 77.742 0 00-.394-1.653c-.247-1.107-.535-2.205-.734-3.323z" fill="#975500"/>
  <defs>
    <linearGradient id="TD162yCyslGoa" x1="9.955" y1="31.167" x2="14.165" y2="21.94" gradientUnits="userSpaceOnUse">
      <stop offset=".001" stop-color="#FFBA47"/>
      <stop offset="1" stop-color="#FFD748"/>
    </linearGradient>
    <linearGradient id="TD162yCyslGod" x1="16.061" y1="-3.702" x2="28.965" y2="31.619" gradientUnits="userSpaceOnUse">
      <stop stop-color="#FFBC47" stop-opacity="0"/>
      <stop offset="1" stop-color="#FFBC47"/>
    </linearGradient>
    <linearGradient id="TD162yCyslGoe" x1="24.062" y1="1.35" x2="10.686" y2="28.08" gradientUnits="userSpaceOnUse">
      <stop stop-color="#FFBC47" stop-opacity="0"/>
      <stop offset="1" stop-color="#C86F34"/>
    </linearGradient>
    <linearGradient id="TD162yCyslGof" x1="20.699" y1="3.359" x2="19.207" y2="11.036" gradientUnits="userSpaceOnUse">
      <stop stop-color="#FFBC47" stop-opacity="0"/>
      <stop offset="1" stop-color="#C86F34"/>
    </linearGradient>
    <linearGradient id="TD162yCyslGog" x1="15.436" y1="18.1" x2="19.859" y2="10.009" gradientUnits="userSpaceOnUse">
      <stop stop-color="#FFBC47" stop-opacity="0"/>
      <stop offset="1" stop-color="#C86F34"/>
    </linearGradient>
    <linearGradient id="TD162yCyslGoh" x1="23.642" y1="22.041" x2="20.104" y2="13.843" gradientUnits="userSpaceOnUse">
      <stop offset=".001" stop-color="#FFBA47"/>
      <stop offset="1" stop-color="#FFD748"/>
    </linearGradient>
    <linearGradient id="TD162yCyslGok" x1="22.393" y1="9.977" x2="8.681" y2="41.286" gradientUnits="userSpaceOnUse">
      <stop stop-color="#FFBC47" stop-opacity="0"/>
      <stop offset="1" stop-color="#FFBC47"/>
    </linearGradient>
    <linearGradient id="TD162yCyslGol" x1="7.795" y1="20.179" x2="23.735" y2="20.179" gradientUnits="userSpaceOnUse">
      <stop offset=".001" stop-color="#FFCB4B"/>
      <stop offset="1" stop-color="#FFD748"/>
    </linearGradient>
    <linearGradient id="TD162yCyslGom" x1="12.465" y1="27.702" x2="14.198" y2="13.003" gradientUnits="userSpaceOnUse">
      <stop stop-color="#A1541E" stop-opacity="0"/>
      <stop offset="1" stop-color="#C86F34"/>
    </linearGradient>
    <linearGradient id="TD162yCyslGon" x1="9.228" y1="14.611" x2="9.228" y2="21.594" gradientUnits="userSpaceOnUse">
      <stop offset=".001" stop-color="#FFCB4B"/>
      <stop offset="1" stop-color="#FFD748"/>
    </linearGradient>
    <linearGradient id="TD162yCyslGoo" x1="13.246" y1="14.612" x2="13.246" y2="21.595" gradientUnits="userSpaceOnUse">
      <stop offset=".001" stop-color="#FFCB4B"/>
      <stop offset="1" stop-color="#FFD748"/>
    </linearGradient>
    <linearGradient id="TD162yCyslGop" x1="13.344" y1="14.437" x2="13.344" y2="23.69" gradientUnits="userSpaceOnUse">
      <stop stop-color="#FFBC47" stop-opacity="0"/>
      <stop offset="1" stop-color="#C86F34"/>
    </linearGradient>
    <linearGradient id="TD162yCyslGoq" x1="9.232" y1="15.629" x2="9.232" y2="10.268" gradientUnits="userSpaceOnUse">
      <stop offset=".001" stop-color="#FFCB4B"/>
      <stop offset="1" stop-color="#FFD748"/>
    </linearGradient>
    <linearGradient id="TD162yCyslGor" x1="13.233" y1="15.63" x2="13.233" y2="10.269" gradientUnits="userSpaceOnUse">
      <stop offset=".001" stop-color="#FFCB4B"/>
      <stop offset="1" stop-color="#FFD748"/>
    </linearGradient>
    <linearGradient id="TD162yCyslGos" x1="10.543" y1="13.13" x2="27.76" y2="22.911" gradientUnits="userSpaceOnUse">
      <stop stop-color="#FFBC47" stop-opacity="0"/>
      <stop offset="1" stop-color="#C86F34"/>
    </linearGradient>
    <linearGradient id="TD162yCyslGot" x1="7.796" y1="22.867" x2="23.736" y2="22.867" gradientUnits="userSpaceOnUse">
      <stop offset=".001" stop-color="#FFCB4B"/>
      <stop offset="1" stop-color="#FFD748"/>
    </linearGradient>
    <linearGradient id="TD162yCyslGov" x1="9.168" y1="14.434" x2="9.646" y2="22.354" gradientUnits="userSpaceOnUse">
      <stop stop-color="#FFBC47" stop-opacity="0"/>
      <stop offset="1" stop-color="#C86F34"/>
    </linearGradient>
    <linearGradient id="TD162yCyslGow" x1="4.98" y1="12.233" x2="31.551" y2="29.105" gradientUnits="userSpaceOnUse">
      <stop stop-color="#FFBC47" stop-opacity="0"/>
      <stop offset="1" stop-color="#C86F34"/>
    </linearGradient>
    <linearGradient id="TD162yCyslGoy" x1="19.621" y1="14.737" x2="17.008" y2="27.753" gradientUnits="userSpaceOnUse">
      <stop stop-color="#FFBC47" stop-opacity="0"/>
      <stop offset="1" stop-color="#FFBC47"/>
    </linearGradient>
    <linearGradient id="TD162yCyslGoz" x1="11.963" y1="23.18" x2="15.619" y2="12.024" gradientUnits="userSpaceOnUse">
      <stop stop-color="#FFBC47" stop-opacity="0"/>
      <stop offset="1" stop-color="#C86F34"/>
    </linearGradient>
    <radialGradient id="TD162yCyslGob" cx="0" cy="0" r="1" gradientUnits="userSpaceOnUse" gradientTransform="matrix(-.7326 -.84176 .44747 -.38944 21.66 3.6)">
      <stop stop-color="#FBE07A"/>
      <stop offset=".265" stop-color="#FCDF73" stop-opacity=".735"/>
      <stop offset=".655" stop-color="#FDDB5F" stop-opacity=".345"/>
      <stop offset="1" stop-color="#FFD748" stop-opacity="0"/>
    </radialGradient>
    <radialGradient id="TD162yCyslGoc" cx="0" cy="0" r="1" gradientUnits="userSpaceOnUse" gradientTransform="matrix(-2.75255 12.2519 -9.04393 -2.03184 20.05 -.964)">
      <stop offset=".139" stop-color="#FFBC47" stop-opacity="0"/>
      <stop offset="1" stop-color="#FF8900"/>
    </radialGradient>
    <radialGradient id="TD162yCyslGoi" cx="0" cy="0" r="1" gradientUnits="userSpaceOnUse" gradientTransform="matrix(-1.08769 -.25027 .13306 -.57828 17.47 3.724)">
      <stop stop-color="#FBE07A"/>
      <stop offset=".265" stop-color="#FCDF73" stop-opacity=".735"/>
      <stop offset=".655" stop-color="#FDDB5F" stop-opacity=".345"/>
      <stop offset="1" stop-color="#FFD748" stop-opacity="0"/>
    </radialGradient>
    <radialGradient id="TD162yCyslGoj" cx="0" cy="0" r="1" gradientUnits="userSpaceOnUse" gradientTransform="matrix(34.2737 0 0 34.2722 15.857 1.803)">
      <stop offset=".139" stop-color="#FFBC47" stop-opacity="0"/>
      <stop offset="1" stop-color="#FF8900"/>
    </radialGradient>
    <radialGradient id="TD162yCyslGou" cx="0" cy="0" r="1" gradientUnits="userSpaceOnUse" gradientTransform="matrix(28.5735 0 0 28.5723 15.611 6.17)">
      <stop offset=".613" stop-color="#FFBC47" stop-opacity="0"/>
      <stop offset="1" stop-color="#FF8900"/>
    </radialGradient>
    <radialGradient id="TD162yCyslGox" cx="0" cy="0" r="1" gradientUnits="userSpaceOnUse" gradientTransform="matrix(18.6214 0 0 7.9732 17.778 16.682)">
      <stop stop-color="#FFBC47" stop-opacity="0"/>
      <stop offset="1" stop-color="#FFA754"/>
    </radialGradient>
    <radialGradient id="TD162yCyslGoA" cx="0" cy="0" r="1" gradientUnits="userSpaceOnUse" gradientTransform="rotate(-138.968 10.585 9.756) scale(5.28192 2.41019)">
      <stop stop-color="#FBE07A"/>
      <stop offset=".265" stop-color="#FCDF73" stop-opacity=".735"/>
      <stop offset=".655" stop-color="#FDDB5F" stop-opacity=".345"/>
      <stop offset="1" stop-color="#FFD748" stop-opacity="0"/>
    </radialGradient>
    <radialGradient id="TD162yCyslGoB" cx="0" cy="0" r="1" gradientUnits="userSpaceOnUse" gradientTransform="rotate(38.212 -16.392 38.451) scale(4.07276 1.49961)">
      <stop stop-color="#FBE07A"/>
      <stop offset=".265" stop-color="#FCDF73" stop-opacity=".735"/>
      <stop offset=".655" stop-color="#FDDB5F" stop-opacity=".345"/>
      <stop offset="1" stop-color="#FFD748" stop-opacity="0"/>
    </radialGradient>
  </defs>
</svg>
