<svg fill="none" xmlns="http://www.w3.org/2000/svg" viewBox="0 0 21 21">
  <g clip-path="url(#Wkkl6HdrLpGDa)">
    <path d="M0 5.236a2.618 2.618 0 012.618-2.618h15.707a2.618 2.618 0 012.617 2.618v10.47a2.618 2.618 0 01-2.617 2.619H2.618A2.618 2.618 0 010 15.707V5.236zm2.618-1.31a1.309 1.309 0 00-1.31 1.31v.284l9.163 5.497 9.163-5.497v-.284a1.309 1.309 0 00-1.31-1.31H2.619zm17.016 3.12l-6.163 3.697 6.163 3.792v-7.49zm-.045 9l-7.382-4.543-1.736 1.04-1.735-1.04-7.383 4.541a1.309 1.309 0 001.265.972h15.707a1.309 1.309 0 001.264-.97zm-18.28-1.51l6.162-3.793L1.31 7.046v7.49z" fill="#6B7280"/>
  </g>
  <defs>
    <clipPath id="Wkkl6HdrLpGDa">
      <path fill="#fff" d="M0 0h20.942v20.942H0z"/>
    </clipPath>
  </defs>
</svg>
