<svg fill="none" xmlns="http://www.w3.org/2000/svg" viewBox="0 0 28 28">
  <g clip-path="url(#nfQ3IcGBkvZsa)">
    <path fill-rule="evenodd" clip-rule="evenodd" d="M27.596 11.95l-6.602 5.666 2.06 8.519a1.168 1.168 0 01-.437 1.207 1.126 1.126 0 01-1.266.048L14 22.77l-7.353 4.62a1.124 1.124 0 01-1.266-.048 1.169 1.169 0 01-.436-1.207l2.059-8.52-6.602-5.664a1.169 1.169 0 01.032-1.787c.177-.141.392-.226.616-.243l8.624-.647 3.272-8.12a1.15 1.15 0 01.419-.52 1.125 1.125 0 011.267 0c.188.127.333.309.419.52l3.27 8.12 8.626.647c.224.017.44.101.617.243.178.141.31.333.38.55a1.169 1.169 0 01-.347 1.237h-.002z" fill="#F7B62D"/>
  </g>
  <defs>
    <clipPath id="nfQ3IcGBkvZsa">
      <path fill="#fff" d="M0 0h28v28H0z"/>
    </clipPath>
  </defs>
</svg>
