<svg fill="none" xmlns="http://www.w3.org/2000/svg" viewBox="0 0 1762 802">
  <path opacity=".08" d="M41 1H1v40M41 1v40m0-40h40M41 41H1m40 0v40m0-40h40M1 41v40m40 0H1m40 0v40m0-40h40M1 81v40m40 0H1m40 0v40m0-40h40m-80 0v40m40 0H1m40 0v40m0-40h40m-80 0v40m40 0H1m40 0v40m0-40h40m-80 0v40m40 0H1m40 0v40m0-40h40m-80 0v40m40 0H1m40 0v40m0-40h40m-80 0v40m40 0H1m40 0v40m0-40h40m-80 0v40m40 0H1m40 0v40m0-40h40m-80 0v40m40 0H1m40 0v40m0-40h40m-80 0v40m40 0H1m40 0v40m0-40h40m-80 0v40m40 0H1m40 0v40m0-40h40m-80 0v40m40 0H1m40 0v40m0-40h40m-80 0v40m40 0H1m40 0v40m0-40h40m-80 0v40m40 0H1m40 0v40m0-40h40m-80 0v40m40 0H1m40 0v40m0-40h40m-80 0v40m40 0H1m40 0v40m0-40h40m-80 0v40m40 0H1m40 0v40m0-40h40m-80 0v40m40 0H1m40 0v40m0-40h40m-80 0v40h40m0 0h40M81 1v40m0-40h40M81 41v40m0-40h40M81 81v40m0-40h40m-40 40v40m0-40h40m-40 40v40m0-40h40m-40 40v40m0-40h40m-40 40v40m0-40h40m-40 40v40m0-40h40m-40 40v40m0-40h40m-40 40v40m0-40h40m-40 40v40m0-40h40m-40 40v40m0-40h40m-40 40v40m0-40h40m-40 40v40m0-40h40m-40 40v40m0-40h40m-40 40v40m0-40h40m-40 40v40m0-40h40m-40 40v40m0-40h40m-40 40v40m0-40h40m-40 40v40m0-40h40m-40 40h40m0-800v40m0-40h40m-40 40v40m0-40h40m-40 40v40m0-40h40m-40 40v40m0-40h40m-40 40v40m0-40h40m-40 40v40m0-40h40m-40 40v40m0-40h40m-40 40v40m0-40h40m-40 40v40m0-40h40m-40 40v40m0-40h40m-40 40v40m0-40h40m-40 40v40m0-40h40m-40 40v40m0-40h40m-40 40v40m0-40h40m-40 40v40m0-40h40m-40 40v40m0-40h40m-40 40v40m0-40h40m-40 40v40m0-40h40m-40 40v40m0-40h40m-40 40v40m0-40h40m-40 40h40m0-800v40m0-40h40m-40 40v40m0-40h40m-40 40v40m0-40h40m-40 40v40m0-40h40m-40 40v40m0-40h40m-40 40v40m0-40h40m-40 40v40m0-40h40m-40 40v40m0-40h40m-40 40v40m0-40h40m-40 40v40m0-40h40m-40 40v40m0-40h40m-40 40v40m0-40h40m-40 40v40m0-40h40m-40 40v40m0-40h40m-40 40v40m0-40h40m-40 40v40m0-40h40m-40 40v40m0-40h40m-40 40v40m0-40h40m-40 40v40m0-40h40m-40 40v40m0-40h40m-40 40h40m0-800v40m0-40h40m-40 40v40m0-40h40m-40 40v40m0-40h40m-40 40v40m0-40h40m-40 40v40m0-40h40m-40 40v40m0-40h40m-40 40v40m0-40h40m-40 40v40m0-40h40m-40 40v40m0-40h40m-40 40v40m0-40h40m-40 40v40m0-40h40m-40 40v40m0-40h40m-40 40v40m0-40h40m-40 40v40m0-40h40m-40 40v40m0-40h40m-40 40v40m0-40h40m-40 40v40m0-40h40m-40 40v40m0-40h40m-40 40v40m0-40h40m-40 40v40m0-40h40m-40 40h40m0-800v40m0-40h40m-40 40v40m0-40h40m-40 40v40m0-40h40m-40 40v40m0-40h40m-40 40v40m0-40h40m-40 40v40m0-40h40m-40 40v40m0-40h40m-40 40v40m0-40h40m-40 40v40m0-40h40m-40 40v40m0-40h40m-40 40v40m0-40h40m-40 40v40m0-40h40m-40 40v40m0-40h40m-40 40v40m0-40h40m-40 40v40m0-40h40m-40 40v40m0-40h40m-40 40v40m0-40h40m-40 40v40m0-40h40m-40 40v40m0-40h40m-40 40v40m0-40h40m-40 40h40m0-800v40m0-40h40m-40 40v40m0-40h40m-40 40v40m0-40h40m-40 40v40m0-40h40m-40 40v40m0-40h40m-40 40v40m0-40h40m-40 40v40m0-40h40m-40 40h40m-40 0v40m0 0v40m0-40h40m-40 40v40m0-40h40m-40 40v40m0-40h40m-40 40v40m0-40h40m-40 40v40m0-40h40m-40 40v40m0-40h40m-40 40v40m0-40h40m-40 40v40m0-40h40m-40 40v40m0-40h40m-40 40v40m0-40h40m-40 40v40m0-40h40m-40 40v40m0-40h40m-40 40h40m0-800v40m0-40h40m-40 40v40m0-40h40m-40 40v40m0-40h40m-40 40v40m0-40h40m-40 40v40m0-40h40m-40 40v40m0-40h40m-40 40v40m0-40h40m-40 40v40m0-40h40m-40 40v40m0-40h40m-40 40v40m0-40h40m-40 40v40m0-40h40m-40 40v40m0-40h40m-40 40v40m0-40h40m-40 40v40m0-40h40m-40 40v40m0-40h40m-40 40v40m0-40h40m-40 40v40m0-40h40m-40 40v40m0-40h40m-40 40v40m0-40h40m-40 40v40m0-40h40m-40 40h40m0-800v40m0-40h40m-40 40v40m0-40h40m-40 40v40m0-40h40m-40 40v40m0-40h40m-40 40v40m0-40h40m-40 40v40m0-40h40m-40 40v40m0-40h40m-40 40v40m0-40h40m-40 40v40m0-40h40m-40 40v40m0-40h40m-40 40v40m0-40h40m-40 40v40m0-40h40m-40 40v40m0-40h40m-40 40v40m0-40h40m-40 40v40m0-40h40m-40 40v40m0-40h40m-40 40v40m0-40h40m-40 40v40m0-40h40m-40 40v40m0-40h40m-40 40v40m0-40h40m-40 40h40m0-800v40m0-40h40m-40 40v40m0-40h40m-40 40v40m0-40h40m-40 40v40m0-40h40m-40 40v40m0-40h40m-40 40v40m0-40h40m-40 40v40m0-40h40m-40 40v40m0-40h40m-40 40v40m0-40h40m-40 40v40m0-40h40m-40 40v40m0-40h40m-40 40v40m0-40h40m-40 40v40m0-40h40m-40 40v40m0-40h40m-40 40v40m0-40h40m-40 40v40m0-40h40m-40 40v40m0-40h40m-40 40v40m0-40h40m-40 40v40m0-40h40m-40 40v40m0-40h40m-40 40h40m0-800v40m0-40h40m-40 40v40m0-40h40m-40 40v40m0-40h40m-40 40v40m0-40h40m-40 40v40m0-40h880m-880 40v40m0-40h880m-880 40v40m0-40h40m-40 40v40m0-40h40m-40 40v40m0-40h40m-40 40v40m0-40h40m-40 40v40m0-40h40m-40 40v40m0-40h40m-40 40v40m0-40h40m-40 40v40m0-40h40m-40 40v40m0-40h40m-40 40v40m0-40h40m-40 40v40m0-40h40m-40 40v40m0-40h40m-40 40v40m0-40h40m-40 40v40m0-40h40m-40 40h40m0-800v40m0-40h40m-40 40v40m0-40h40m-40 40v40m0-40h40m-40 40h40m-40 0v120m0 0v40m0-40h40m-40 40v40m0-40h40m-40 40v40m0-40h40m-40 40v40m0-40h40m-40 40v40m0-40h40m-40 40v40m0-40h40m-40 40v40m0-40h40m-40 40v40m0-40h40m-40 40v40m0-40h40m-40 40v40m0-40h40m-40 40v40m0-40h40m-40 40v40m0-40h40m-40 40v40m0-40h40m-40 40v40m0-40h40m-40 40h40m0-800v40m0-40h40m-40 40v40m0-40h40m-40 40v40m0-40h40m-40 40h40m-40 0v120m0 0v40m0-40h40m-40 40v40m0-40h40m-40 40v40m0-40h40m-40 40v40m0-40h40m-40 40v40m0-40h40m-40 40v40m0-40h40m-40 40v40m0-40h40m-40 40v40m0-40h40m-40 40v40m0-40h40m-40 40v40m0-40h40m-40 40v40m0-40h40m-40 40v40m0-40h40m-40 40v40m0-40h40m-40 40v40m0-40h40m-40 40h40m0-800v40m0-40h40m-40 40v40m0-40h40m-40 40v40m0-40h40m-40 40h40m-40 0v120m0 0v40m0-40h640m-640 40v40m0-40h640m-640 40v40m0-40h40m-40 40v40m0-40h40m-40 40v40m0-40h40m-40 40v40m0-40h40m-40 40v40m0-40h40m-40 40v40m0-40h40m-40 40v40m0-40h40m-40 40v40m0-40h40m-40 40v40m0-40h40m-40 40v40m0-40h40m-40 40v40m0-40h40m-40 40v40m0-40h40m-40 40h40m0-800v40m0-40h40m-40 40v40m0-40h40m-40 40v40m0-40h40m-40 40h40m-40 0v200m0 0v40m0-40h40m-40 40v40m0-40h40m-40 40v40m0-40h40m-40 40v40m0-40h40m-40 40v40m0-40h40m-40 40v40m0-40h40m-40 40v40m0-40h40m-40 40v40m0-40h40m-40 40v40m0-40h40m-40 40v40m0-40h40m-40 40v40m0-40h40m-40 40v40m0-40h40m-40 40h40m0-800v40m0-40h40m-40 40v40m0-40h40m-40 40v40m0-40h40m-40 40h40m-40 0v200m0 0v40m0-40h40m-40 40v40m0-40h40m-40 40v40m0-40h40m-40 40v40m0-40h40m-40 40v40m0-40h40m-40 40v40m0-40h40m-40 40v40m0-40h40m-40 40v40m0-40h40m-40 40v40m0-40h40m-40 40v40m0-40h40m-40 40v40m0-40h40m-40 40v40m0-40h40m-40 40h40m0-800v40m0-40h40m-40 40v40m0-40h40m-40 40v40m0-40h40m-40 40h40m-40 0v200m0 0v40m0-40h40m-40 40v40m0-40h40m-40 40v40m0-40h40m-40 40v40m0-40h40m-40 40v40m0-40h40m-40 40v40m0-40h40m-40 40v40m0-40h40m-40 40v40m0-40h40m-40 40v40m0-40h40m-40 40v40m0-40h40m-40 40v40m0-40h40m-40 40v40m0-40h40m-40 40h40m0-800v40m0-40h40m-40 40v40m0-40h40m-40 40v40m0-40h40m-40 40h40m-40 0v200m0 0v40m0-40h40m-40 40v40m0-40h40m-40 40v40m0-40h40m-40 40v40m0-40h40m-40 40v40m0-40h40m-40 40v40m0-40h40m-40 40v40m0-40h40m-40 40v40m0-40h40m-40 40v40m0-40h40m-40 40v40m0-40h40m-40 40v40m0-40h40m-40 40v40m0-40h40m-40 40h40m0-800v40m0-40h40m-40 40v40m0-40h40m-40 40v40m0-40h40m-40 40h40m-40 0v200m0 0v40m0-40h40m-40 40v40m0-40h40m-40 40v40m0-40h40m-40 40v40m0-40h40m-40 40v40m0-40h40m-40 40v40m0-40h40m-40 40v40m0-40h40m-40 40v40m0-40h40m-40 40v40m0-40h40m-40 40v40m0-40h40m-40 40v40m0-40h40m-40 40v40m0-40h40m-40 40h40m0-800v40m0-40h40m-40 40v40m0-40h40m-40 40v40m0-40h40m-40 40h40m-40 0v200m0 0v40m0-40h40m-40 40v40m0-40h40m-40 40v40m0-40h40m-40 40v40m0-40h40m-40 40v40m0-40h40m-40 40v40m0-40h40m-40 40v40m0-40h40m-40 40v40m0-40h40m-40 40v40m0-40h40m-40 40v40m0-40h40m-40 40v40m0-40h40m-40 40v40m0-40h40m-40 40h40m0-800v40m0-40h40m-40 40h40m-40 0v40m0 0v40m0-40h40m-40 40h40m-40 0v200m0 0v40m0-40h40m-40 40v40m0-40h40m-40 40v40m0-40h40m-40 40v40m0-40h40m-40 40v40m0-40h40m-40 40v40m0-40h40m-40 40v40m0-40h40m-40 40v40m0-40h40m-40 40v40m0-40h40m-40 40v40m0-40h40m-40 40v40m0-40h40m-40 40v40m0-40h40m-40 40h40m0-800v40m0-40h40m-40 40h40m-40 0v40m0 0v40m0-40h40m-40 40h40m-40 0v200m0 0v40m0-40h40m-40 40v40m0-40h40m-40 40v40m0-40h40m-40 40v40m0-40h40m-40 40v40m0-40h40m-40 40v40m0-40h40m-40 40v40m0-40h40m-40 40v40m0-40h40m-40 40v40m0-40h40m-40 40v40m0-40h40m-40 40v40m0-40h40m-40 40v40m0-40h40m-40 40h40m0-800v40m0-40h40m-40 40h40m-40 0v40m0 0v40m0-40h40m-40 40h40m-40 0v200m0 0v40m0-40h40m-40 40v40m0-40h40m-40 40v40m0-40h40m-40 40v40m0-40h40m-40 40v40m0-40h40m-40 40v40m0-40h40m-40 40v40m0-40h40m-40 40v40m0-40h40m-40 40v40m0-40h40m-40 40v40m0-40h40m-40 40v40m0-40h40m-40 40v40m0-40h40m-40 40h40m0-800v40m0-40h40m-40 40h40m-40 0v40m0 0v40m0-40h40m-40 40h40m-40 0v200m0 0v40m0-40h40m-40 40v40m0-40h40m-40 40v40m0-40h40m-40 40v40m0-40h40m-40 40v40m0-40h40m-40 40v40m0-40h40m-40 40v40m0-40h40m-40 40v40m0-40h40m-40 40v40m0-40h40m-40 40v40m0-40h40m-40 40v40m0-40h40m-40 40v40m0-40h40m-40 40h40m0-800v40m0-40h40m-40 40v40m0-40h40m-40 40v40m0-40h40m-40 40h40m-40 0v200m0 0v40m0-40h40m-40 40v40m0-40h40m-40 40v40m0-40h40m-40 40v40m0-40h40m-40 40v40m0-40h40m-40 40v40m0-40h40m-40 40v40m0-40h40m-40 40v40m0-40h40m-40 40v40m0-40h40m-40 40v40m0-40h40m-40 40v40m0-40h40m-40 40v40m0-40h40m-40 40h40m0-800v40m0-40h40m-40 40v40m0-40h40m-40 40v40m0-40h40m-40 40h40m-40 0v200m0 0v40m0-40h40m-40 40v40m0-40h40m-40 40v40m0-40h40m-40 40v40m0-40h40m-40 40v40m0-40h40m-40 40v40m0-40h40m-40 40v40m0-40h40m-40 40v40m0-40h40m-40 40v40m0-40h40m-40 40v40m0-40h40m-40 40v40m0-40h40m-40 40v40m0-40h40m-40 40h40m0-800v40m0-40h40m-40 40v40m0-40h40m-40 40v40m0-40h40m-40 40h40m-40 0v200m0 0v40m0-40h40m-40 40v40m0-40h40m-40 40v40m0-40h40m-40 40v40m0-40h40m-40 40v40m0-40h40m-40 40v40m0-40h40m-40 40v40m0-40h40m-40 40v40m0-40h40m-40 40v40m0-40h40m-40 40v40m0-40h40m-40 40v40m0-40h40m-40 40v40m0-40h40m-40 40h40m0-800v40m0-40h40m-40 40v40m0-40h40m-40 40v40m0-40h40m-40 40h40m-40 0v200m0 0v40m0-40h40m-40 40v40m0-40h40m-40 40v40m0-40h40m-40 40v40m0-40h40m-40 40v40m0-40h40m-40 40v40m0-40h40m-40 40v40m0-40h40m-40 40v40m0-40h40m-40 40v40m0-40h40m-40 40v40m0-40h40m-40 40v40m0-40h40m-40 40v40m0-40h40m-40 40h40m0-800v40m0-40h40m-40 40v40m0-40h40m-40 40v40m0-40h40m-40 40h40m-40 0v200m0 0v40m0-40h40m-40 40v40m0-40h40m-40 40v40m0-40h40m-40 40v40m0-40h40m-40 40v40m0-40h40m-40 40v40m0-40h40m-40 40v40m0-40h40m-40 40v40m0-40h40m-40 40v40m0-40h40m-40 40v40m0-40h40m-40 40v40m0-40h40m-40 40v40m0-40h40m-40 40h40m0-800v40m0-40h40m-40 40v40m0-40h40m-40 40v40m0-40h40m-40 40h40m-40 0v120m0 0v40m0-40h40m-40 40v40m0-40h40m-40 40v40m0-40h40m-40 40v40m0-40h40m-40 40v40m0-40h40m-40 40v40m0-40h40m-40 40v40m0-40h40m-40 40v40m0-40h40m-40 40v40m0-40h40m-40 40v40m0-40h40m-40 40v40m0-40h40m-40 40v40m0-40h40m-40 40v40m0-40h40m-40 40v40m0-40h40m-40 40h40m0-800v40m0-40h40m-40 40v40m0-40h40m-40 40v40m0-40h40m-40 40h40m-40 0v120m0 0v40m0-40h40m-40 40v40m0-40h40m-40 40v40m0-40h40m-40 40v40m0-40h40m-40 40v40m0-40h40m-40 40v40m0-40h40m-40 40v40m0-40h40m-40 40v40m0-40h40m-40 40v40m0-40h40m-40 40v40m0-40h40m-40 40v40m0-40h40m-40 40v40m0-40h40m-40 40v40m0-40h40m-40 40v40m0-40h40m-40 40h40m0-800v40m0-40h40m-40 40v40m0-40h40m-40 40v40m0-40h40m-40 40h40m-40 0v120m0 0v40m0-40h40m-40 40v40m0-40h40m-40 40v40m0-40h40m-40 40v40m0-40h40m-40 40v40m0-40h40m-40 40v40m0-40h40m-40 40v40m0-40h40m-40 40v40m0-40h40m-40 40v40m0-40h40m-40 40v40m0-40h40m-40 40v40m0-40h40m-40 40v40m0-40h40m-40 40v40m0-40h40m-40 40v40m0-40h40m-40 40h40m0-800v40m0-40h40m-40 40v40m0-40h40m-40 40v40m0-40h40m-40 40v40m0-40h40m-40 40v40m0-40h40m-40 40v40m0-40h40m-40 40v40m0-40h40m-40 40v40m0-40h40m-40 40v40m0-40h40m-40 40v40m0-40h40m-40 40v40m0-40h40m-40 40v40m0-40h40m-40 40v40m0-40h40m-40 40v40m0-40h40m-40 40v40m0-40h40m-40 40v40m0-40h40m-40 40v40m0-40h40m-40 40v40m0-40h40m-40 40v40m0-40h40m-40 40v40m0-40h40m-40 40h40m0-800v40m0-40h40m-40 40v40m0-40h40m-40 40v40m0-40h40m-40 40v40m0-40h40m-40 40v40m0-40h40m-40 40v40m0-40h40m-40 40v40m0-40h40m-40 40v40m0-40h40m-40 40v40m0-40h40m-40 40v40m0-40h40m-40 40v40m0-40h40m-40 40v40m0-40h40m-40 40v40m0-40h40m-40 40v40m0-40h40m-40 40v40m0-40h40m-40 40v40m0-40h40m-40 40v40m0-40h40m-40 40v40m0-40h40m-40 40v40m0-40h40m-40 40v40m0-40h40m-40 40h40m0-800v40m0-40h40m-40 40v40m0-40h40m-40 40v40m0-40h40m-40 40v40m0-40h40m-40 40v40m0-40h40m-40 40v40m0-40h40m-40 40v40m0-40h40m-40 40v40m0-40h40m-40 40v40m0-40h40m-40 40v40m0-40h40m-40 40v40m0-40h40m-40 40v40m0-40h40m-40 40v40m0-40h40m-40 40v40m0-40h40m-40 40v40m0-40h40m-40 40v40m0-40h40m-40 40v40m0-40h40m-40 40v40m0-40h40m-40 40v40m0-40h40m-40 40v40m0-40h40m-40 40h40m0-800v40m0-40h40m-40 40v40m0-40h40m-40 40v40m0-40h40m-40 40v40m0-40h40m-40 40v40m0-40h40m-40 40v40m0-40h40m-40 40v40m0-40h40m-40 40v40m0-40h40m-40 40v40m0-40h40m-40 40v40m0-40h40m-40 40v40m0-40h40m-40 40v40m0-40h40m-40 40v40m0-40h40m-40 40v40m0-40h40m-40 40v40m0-40h40m-40 40v40m0-40h40m-40 40v40m0-40h40m-40 40v40m0-40h40m-40 40v40m0-40h40m-40 40v40m0-40h40m-40 40h40m0-800v40m0-40h40m-40 40v40m0-40h40m-40 40v40m0-40h40m-40 40v40m0-40h40m-40 40v40m0-40h40m-40 40v40m0-40h40m-40 40v40m0-40h40m-40 40h40m-40 0v40m0 0v40m0-40h40m-40 40v40m0-40h40m-40 40v40m0-40h40m-40 40v40m0-40h40m-40 40v40m0-40h40m-40 40v40m0-40h40m-40 40v40m0-40h40m-40 40v40m0-40h40m-40 40v40m0-40h40m-40 40v40m0-40h40m-40 40v40m0-40h40m-40 40v40m0-40h40m-40 40h40m0-800v40m0-40h40m-40 40v40m0-40h40m-40 40v40m0-40h40m-40 40v40m0-40h40m-40 40v40m0-40h40m-40 40v40m0-40h40m-40 40v40m0-40h40m-40 40v40m0-40h40m-40 40v40m0-40h40m-40 40v40m0-40h40m-40 40v40m0-40h40m-40 40v40m0-40h40m-40 40v40m0-40h40m-40 40v40m0-40h40m-40 40v40m0-40h40m-40 40v40m0-40h40m-40 40v40m0-40h40m-40 40v40m0-40h40m-40 40v40m0-40h40m-40 40v40m0-40h40m-40 40h40m0-800v40m0-40h40m-40 40v40m0-40h40m-40 40v40m0-40h40m-40 40v40m0-40h40m-40 40v40m0-40h40m-40 40v40m0-40h40m-40 40v40m0-40h40m-40 40v40m0-40h40m-40 40v40m0-40h40m-40 40v40m0-40h40m-40 40v40m0-40h40m-40 40v40m0-40h40m-40 40v40m0-40h40m-40 40v40m0-40h40m-40 40v40m0-40h40m-40 40v40m0-40h40m-40 40v40m0-40h40m-40 40v40m0-40h40m-40 40v40m0-40h40m-40 40v40m0-40h40m-40 40h40m0-800v40m0-40h40m-40 40v40m0-40h40m-40 40v40m0-40h40m-40 40v40m0-40h40m-40 40v40m0-40h40m-40 40v40m0-40h40m-40 40v40m0-40h40m-40 40v40m0-40h40m-40 40v40m0-40h40m-40 40v40m0-40h40m-40 40v40m0-40h40m-40 40v40m0-40h40m-40 40v40m0-40h40m-40 40v40m0-40h40m-40 40v40m0-40h40m-40 40v40m0-40h40m-40 40v40m0-40h40m-40 40v40m0-40h40m-40 40v40m0-40h40m-40 40v40m0-40h40m-40 40h40m0-800v40m0-40h40m-40 40v40m0-40h40m-40 40v40m0-40h40m-40 40v40m0-40h40m-40 40v40m0-40h40m-40 40v40m0-40h40m-40 40v40m0-40h40m-40 40v40m0-40h40m-40 40v40m0-40h40m-40 40v40m0-40h40m-40 40v40m0-40h40m-40 40v40m0-40h40m-40 40v40m0-40h40m-40 40v40m0-40h40m-40 40v40m0-40h40m-40 40v40m0-40h40m-40 40v40m0-40h40m-40 40v40m0-40h40m-40 40v40m0-40h40m-40 40v40m0-40h40m-40 40h40m0-800v40m0-40h40m-40 40v40m0-40h40m-40 40v40m0-40h40m-40 40v40m0-40h40m-40 40v40m0-40h40m-40 40v40m0-40h40m-40 40v40m0-40h40m-40 40v40m0-40h40m-40 40v40m0-40h40m-40 40v40m0-40h40m-40 40v40m0-40h40m-40 40v40m0-40h40m-40 40v40m0-40h40m-40 40v40m0-40h40m-40 40v40m0-40h40m-40 40v40m0-40h40m-40 40v40m0-40h40m-40 40v40m0-40h40m-40 40v40m0-40h40m-40 40v40m0-40h40m-40 40h40m0-800v40m0-40h40v40m-40 0v40m0-40h40m-40 40v40m0-40h40m-40 40v40m0-40h40m-40 40v40m0-40h40m-40 40v40m0-40h40m-40 40v40m0-40h40m-40 40v40m0-40h40m-40 40v40m0-40h40m-40 40v40m0-40h40m-40 40v40m0-40h40m-40 40v40m0-40h40m-40 40v40m0-40h40m-40 40v40m0-40h40m-40 40v40m0-40h40m-40 40v40m0-40h40m-40 40v40m0-40h40m-40 40v40m0-40h40m-40 40v40m0-40h40m-40 40v40m0-40h40m-40 40h40v-40m0-720v40m0 0v40m0 0v40m0 0v40m0 0v40m0 0v40m0 0v40m0 0v40m0 0v40m0 0v40m0 0v40m0 0v40m0 0v40m0 0v40m0 0v40m0 0v40m0 0v40m0 0v40" stroke="url(#QRy_XJQzBklqa)"/>
  <defs>
    <linearGradient id="QRy_XJQzBklqa" x1="881" y1="237" x2="881" y2="997.5" gradientUnits="userSpaceOnUse">
      <stop stop-color="#fff" stop-opacity=".65"/>
      <stop offset="1" stop-color="#fff" stop-opacity="0"/>
    </linearGradient>
  </defs>
</svg>
