<svg fill="none" xmlns="http://www.w3.org/2000/svg" viewBox="0 0 35 18">
  <path fill-rule="evenodd" clip-rule="evenodd" d="M0 0h34.2v1.385H0V0zm0 2.77h34.2v1.384H0V2.769zm0 2.769h34.2v1.384H0V5.54zm0 2.769h34.2v1.384H0V8.308zm0 2.769h34.2v1.385H0v-1.385zm0 2.77h34.2v1.384H0v-1.385zm0 2.769h34.2V18H0v-1.384z" fill="#BD3D44"/>
  <path fill-rule="evenodd" clip-rule="evenodd" d="M0 1.385h34.2v1.384H0V1.385zm0 2.769h34.2v1.385H0V4.154zm0 2.77h34.2v1.384H0V6.923zm0 2.768h34.2v1.385H0V9.692zm0 2.77h34.2v1.384H0v-1.384zm0 2.769h34.2v1.385H0V15.23z" fill="#fff"/>
</svg>
