<svg fill="none" xmlns="http://www.w3.org/2000/svg" viewBox="0 0 45 24">
  <path fill-rule="evenodd" clip-rule="evenodd" d="M0 0h44.765v1.812H0V0zm0 3.625h44.765v1.812H0V3.625zm0 3.624h44.765v1.813H0V7.249zm0 3.625h44.765v1.812H0v-1.812zm0 3.625h44.765v1.812H0V14.5zm0 3.624h44.765v1.813H0v-1.813zm0 3.625h44.765v1.812H0v-1.812z" fill="#BD3D44"/>
  <path fill-rule="evenodd" clip-rule="evenodd" d="M0 1.813h44.765v1.812H0V1.813zm0 3.624h44.765V7.25H0V5.437zm0 3.625h44.765v1.812H0V9.062zm0 3.625h44.765v1.812H0v-1.812zm0 3.624h44.765v1.813H0V16.31zm0 3.625h44.765v1.812H0v-1.812z" fill="#fff"/>
</svg>
