<svg fill="none" xmlns="http://www.w3.org/2000/svg" viewBox="0 0 7 7">
  <g clip-path="url(#sRMAqOMhknJKa)">
    <path d="M3.049 6.007l.28.842a.157.157 0 00.298 0l.28-.842m-.858 0h.859m-.86 0a1.257 1.257 0 00-.794-.795m.795.795l-.795-.795m1.654.795l-.33-.11h0l.33.11zm1.527-1.044l-.543-.18.543-.181a.19.19 0 000 .361zm0 0h0l.06-.18m-.06.18l.06-.18m0 0l.05.149-.05-.15m0 0h0m0 0h0m0 0l.05-.149-.05.15m0 0h0m0 0l-.06-.181h0l.06.18m0 0h0M3.297 2.827l.181.543.181-.543m-.362 0a.19.19 0 00.362 0m-.362 0l.181-.06m-.18.06h0l.18-.06m.181.06h0l-.18-.06m.18.06l-.18-.06m0 0h0m0 0h0m0 0h0m0 0l-.15-.05.15.05m0 0h0m0 0l.148-.05-.149.05M2.254 5.212l-.842-.28m.842.28l-.842-.28m0 0a.157.157 0 010-.299v.299zm3.181-.249l.11-.33-.11.33h0zm-3.071.28l.543-.18-.543-.181a.19.19 0 010 .361zM3.659 6.74l-.18-.543-.182.543a.19.19 0 01.362 0zM1.74.53L1.65.5l.09.03h0l.112.037h0L1.739.53h0zm-.194 1.016a1.1 1.1 0 00.194-.262c.103.194.262.353.457.456a1.102 1.102 0 00-.457.457 1.102 1.102 0 00-.456-.457 1.08 1.08 0 00.262-.194zM4.685.87a.85.85 0 00.097-.1.85.85 0 00.098.1.849.849 0 00-.098.098.853.853 0 00-.099-.098z" fill="#1F2937" stroke="#1F2937" stroke-width=".696"/>
  </g>
  <defs>
    <clipPath id="sRMAqOMhknJKa">
      <path fill="#fff" d="M0 0h6.957v6.957H0z"/>
    </clipPath>
  </defs>
</svg>
