<svg fill="none" xmlns="http://www.w3.org/2000/svg" viewBox="0 0 21 21">
  <g clip-path="url(#UKptR_otGFIAa)" fill="#6B7280">
    <path d="M10.471 19.634a9.162 9.162 0 110-18.325 9.162 9.162 0 010 18.325zm0 1.308a10.472 10.472 0 100-20.943 10.472 10.472 0 000 20.943z"/>
    <path d="M6.878 7.573a.31.31 0 00.316.324h1.08c.18 0 .324-.148.348-.328.118-.858.707-1.484 1.756-1.484.898 0 1.72.449 1.72 1.529 0 .831-.49 1.213-1.263 1.794-.88.64-1.578 1.388-1.529 2.601l.004.284a.327.327 0 00.327.322H10.7a.327.327 0 00.327-.327v-.138c0-.94.357-1.213 1.322-1.944.797-.607 1.628-1.28 1.628-2.692 0-1.977-1.67-2.933-3.498-2.933-1.659 0-3.475.772-3.6 2.992zm2.038 7.543c0 .698.557 1.214 1.322 1.214.797 0 1.346-.516 1.346-1.213 0-.723-.55-1.23-1.347-1.23-.764 0-1.32.507-1.32 1.23z"/>
  </g>
  <defs>
    <clipPath id="UKptR_otGFIAa">
      <path fill="#fff" d="M0 0h20.942v20.942H0z"/>
    </clipPath>
  </defs>
</svg>
