<svg fill="none" xmlns="http://www.w3.org/2000/svg" viewBox="0 0 177 29">
  <path d="M10.24 6.885h1.918l1.187 4.072-2.769 1.113c-.527-.85-1.191-1.513-1.992-1.992-.791-.488-1.577-.732-2.358-.732-.518 0-.904.088-1.158.263-.254.176-.38.386-.38.63 0 .205.087.396.263.571.186.176.562.362 1.128.557l4.028 1.436a12.21 12.21 0 012.051.952c.655.38 1.143.85 1.465 1.406.332.547.498 1.191.498 1.934 0 1.328-.508 2.417-1.523 3.266-1.192.996-2.676 1.494-4.453 1.494-1.524 0-2.852-.385-3.985-1.157l-.41.806H1.802L0 16.699l2.769-1.172c.693 1.084 1.547 1.939 2.563 2.564 1.016.615 1.948.923 2.798.923.527 0 .972-.122 1.333-.366.273-.196.41-.425.41-.689 0-.225-.107-.44-.322-.645-.215-.205-.689-.434-1.421-.688l-3.164-1.099c-1.748-.615-2.94-1.27-3.574-1.962a3.63 3.63 0 01-.938-2.49c0-1.231.493-2.266 1.48-3.106 1.123-.957 2.51-1.436 4.16-1.436 1.465 0 2.72.332 3.764.996l.381-.644zM18.92 0c.742 0 1.372.264 1.89.791.527.518.79 1.147.79 1.89 0 .752-.263 1.391-.79 1.919a2.572 2.572 0 01-1.89.776 2.62 2.62 0 01-1.904-.776 2.62 2.62 0 01-.777-1.905c0-.732.269-1.362.806-1.89C17.582.27 18.207 0 18.92 0zm2.373 6.533v10.825c0 .518.03.835.088.953.058.117.161.21.308.278.156.059.497.088 1.025.088h.79v2.827h-9.052v-2.827h.777c.507 0 .83-.025.966-.073a.607.607 0 00.323-.279c.068-.127.102-.38.102-.761v-6.988h-2.168V7.822a17.4 17.4 0 002.212-.249 15.23 15.23 0 001.904-.454 9.176 9.176 0 001.333-.586h1.392zm9.091 0v1.948c.85-.654 1.714-1.142 2.593-1.464a7.732 7.732 0 012.68-.484 5.2 5.2 0 011.656.264c.537.166.98.386 1.332.66.362.272.689.644.982 1.112.947-.722 1.855-1.24 2.725-1.552a7.572 7.572 0 012.65-.484c.782 0 1.49.142 2.125.425.635.283 1.147.669 1.538 1.157.4.479.66 1.001.776 1.568.078.351.118.864.118 1.538v6.064c0 .498.034.82.102.967a.765.765 0 00.381.337c.127.059.483.088 1.07.088h.644v2.827h-8.57v-2.827c.635 0 1.036-.03 1.202-.088a.72.72 0 00.366-.308c.078-.146.117-.459.117-.937v-5.318c0-.615-.044-1.02-.132-1.216-.078-.205-.239-.375-.483-.512-.234-.147-.518-.22-.85-.22-.38 0-.79.088-1.23.264-.44.166-1.09.537-1.949 1.113v5.728c0 .566.04.922.118 1.069.078.146.215.259.41.337.117.049.503.078 1.157.088v2.827H33.87v-2.827c.664-.01 1.07-.044 1.216-.103a.637.637 0 00.337-.322c.078-.156.117-.513.117-1.07v-5.024c0-.771-.068-1.284-.205-1.538-.215-.38-.596-.571-1.143-.571a3.95 3.95 0 00-1.757.425c-.157.078-.557.332-1.202.761l-.337.22v5.728c0 .547.03.888.088 1.025a.704.704 0 00.337.337c.176.088.474.132.894.132h.395v2.827h-8.554v-2.827h.571c.605 0 .981-.03 1.128-.088a.695.695 0 00.351-.337c.079-.166.118-.522.118-1.07v-6.591h-2.168V7.764c1.787-.166 3.437-.577 4.95-1.23h1.378zm28.163 0V8.16c1.113-.683 1.963-1.123 2.549-1.318A5.81 5.81 0 0163 6.533c1.709 0 3.1.63 4.175 1.89 1.23 1.445 1.846 3.29 1.846 5.537 0 2.148-.538 3.945-1.612 5.39-1.23 1.67-2.88 2.505-4.951 2.505-.664 0-1.245-.078-1.743-.234-.498-.146-1.04-.42-1.626-.82v2.944c0 .586.03.938.088 1.055a.585.585 0 00.322.307c.156.069.537.103 1.143.103h.688v2.827h-9.11V25.21h.498c.674 0 1.079-.03 1.216-.088.146-.049.258-.161.337-.337.087-.166.131-.512.131-1.04V10.62H52.22V7.778c1.054-.127 1.953-.283 2.695-.468a14.373 14.373 0 002.256-.777h1.377zm.542 4.57v4.776c0 .752.068 1.289.205 1.611.146.313.39.572.732.777.352.195.752.293 1.201.293.792 0 1.446-.367 1.963-1.1.528-.732.791-1.845.791-3.339 0-1.387-.229-2.412-.688-3.076-.45-.674-1.006-1.01-1.67-1.01-.762 0-1.606.356-2.534 1.069zM76.5 0v17.139c0 .576.024.918.073 1.025.069.195.22.337.454.425.147.059.542.088 1.187.088h.513v2.827h-9.068v-2.827h.557c.586 0 .962-.034 1.128-.103a.755.755 0 00.366-.351c.078-.166.117-.528.117-1.084V4.072H69.66V1.23c1.748-.117 3.555-.527 5.42-1.23h1.42z" fill="#fff"/>
  <path d="M77.754 6.885h9.14v2.827h-.6c-.547 0-.894.039-1.04.117-.137.068-.205.171-.205.308 0 .117.102.425.307.923l2.198 5.288 2.3-5.288c.175-.4.263-.689.263-.865a.377.377 0 00-.22-.351c-.146-.088-.483-.132-1.01-.132h-.835V6.885h7.895v2.827c-.693.01-1.098.034-1.216.073a.836.836 0 00-.41.22c-.107.107-.283.405-.527.893l-6.621 13.58c-.694 1.416-1.45 2.407-2.27 2.973-.83.567-1.817.85-2.96.85-1.113 0-2.016-.298-2.71-.894-.683-.586-1.025-1.25-1.025-1.992 0-.586.205-1.094.615-1.523.41-.42.904-.63 1.48-.63.39 0 .771.097 1.142.293.245.127.494.341.747.644.157.195.279.318.367.366.097.059.19.088.278.088.205 0 .405-.097.6-.293.294-.302.626-.854.997-1.655l.556-1.201-4.98-10.444c-.244-.528-.435-.86-.572-.997A.966.966 0 0079 9.785c-.166-.049-.581-.073-1.245-.073V6.885z" fill="#fff"/>
  <path d="M96.059 12.305h7.939v3.5h-7.94v-3.5z" fill="#F35E96"/>
  <path d="M111.712 6.533v1.948c.85-.654 1.714-1.142 2.593-1.464a7.73 7.73 0 012.68-.484c.577 0 1.128.088 1.656.264.537.166.981.386 1.333.66.361.272.688.644.981 1.112.947-.722 1.856-1.24 2.725-1.552a7.572 7.572 0 012.651-.484c.781 0 1.489.142 2.124.425.635.283 1.148.669 1.538 1.157a3.54 3.54 0 01.777 1.568c.078.351.117.864.117 1.538v6.064c0 .498.034.82.102.967a.764.764 0 00.381.337c.127.059.484.088 1.069.088h.645v2.827h-8.569v-2.827c.634 0 1.035-.03 1.201-.088a.719.719 0 00.366-.308c.078-.146.117-.459.117-.937v-5.318c0-.615-.044-1.02-.132-1.216-.078-.205-.239-.375-.483-.512-.234-.147-.518-.22-.85-.22-.38 0-.791.088-1.23.264-.44.166-1.089.537-1.948 1.113v5.728c0 .566.039.922.117 1.069.078.146.215.259.41.337.117.049.503.078 1.157.088v2.827h-8.042v-2.827c.664-.01 1.07-.044 1.216-.103a.635.635 0 00.337-.322c.078-.156.117-.513.117-1.07v-5.024c0-.771-.068-1.284-.205-1.538-.215-.38-.596-.571-1.142-.571a3.95 3.95 0 00-1.758.425c-.157.078-.557.332-1.201.761l-.337.22v5.728c0 .547.029.888.087 1.025a.705.705 0 00.337.337c.176.088.474.132.894.132h.395v2.827h-8.554v-2.827h.571c.606 0 .982-.03 1.128-.088a.7.7 0 00.352-.337c.078-.166.117-.522.117-1.07v-6.591h-2.168V7.764c1.787-.166 3.437-.577 4.951-1.23h1.377zm30.697 6.109v-1.084c0-.645-.054-1.09-.161-1.333-.107-.245-.303-.445-.586-.601-.283-.166-.635-.249-1.055-.249-.322 0-.615.054-.878.161a1.758 1.758 0 00-.63.41c-.157.166-.337.489-.542.967-.264.606-.581 1.04-.953 1.304-.361.263-.791.395-1.289.395-.625 0-1.137-.195-1.538-.586-.4-.39-.6-.874-.6-1.45 0-.654.205-1.235.615-1.743.547-.674 1.362-1.226 2.446-1.655 1.084-.43 2.305-.645 3.662-.645 1.358 0 2.51.22 3.457.66.957.439 1.622.966 1.993 1.581.38.606.571 1.534.571 2.784v5.244c0 .644.034 1.06.102 1.245.069.176.215.332.44.469.225.136.474.205.747.205s.64-.078 1.099-.235v2.857c-.83.263-1.626.395-2.388.395-.899 0-1.665-.146-2.3-.44a4.076 4.076 0 01-1.597-1.317c-.976.634-1.865 1.088-2.666 1.362a7.254 7.254 0 01-2.299.395c-1.397 0-2.525-.39-3.384-1.172-.86-.79-1.289-1.762-1.289-2.915 0-.654.146-1.255.439-1.801.303-.547.747-1.026 1.333-1.436.596-.41 1.509-.771 2.739-1.084 1.241-.322 2.745-.552 4.512-.688zm0 2.431c-1.279.186-2.182.376-2.71.572-.527.185-.903.424-1.128.717-.224.284-.337.577-.337.88 0 .39.147.717.44.98.293.264.688.396 1.186.396.323 0 .694-.083 1.114-.249.429-.166.908-.41 1.435-.732v-2.564zM153.961 0a2.55 2.55 0 011.89.791 2.55 2.55 0 01.791 1.89c0 .752-.264 1.391-.791 1.919a2.574 2.574 0 01-1.89.776 2.62 2.62 0 01-1.904-.776 2.62 2.62 0 01-.777-1.905c0-.732.269-1.362.806-1.89.537-.536 1.162-.805 1.875-.805zm2.373 6.533v10.825c0 .518.029.835.088.953.058.117.161.21.307.278.157.059.499.088 1.026.088h.791v2.827h-9.053v-2.827h.777c.507 0 .83-.025.966-.073a.61.61 0 00.323-.279c.068-.127.102-.38.102-.761v-6.988h-2.168V7.822a17.366 17.366 0 002.212-.249 15.19 15.19 0 001.904-.454 9.124 9.124 0 001.333-.586h1.392zM173.95 0v17.036c0 .674.029 1.084.088 1.23a.6.6 0 00.293.308c.147.069.523.103 1.128.103h.688v2.827l-6.357.22v-1.51c-.918.616-1.724 1.046-2.417 1.29a6.46 6.46 0 01-2.08.351 5.652 5.652 0 01-3.105-.908c-.938-.615-1.709-1.523-2.315-2.724-.596-1.201-.894-2.534-.894-4 0-1.484.303-2.827.909-4.028.615-1.21 1.411-2.124 2.387-2.739.987-.615 2.085-.923 3.296-.923.625 0 1.221.078 1.787.235.577.146 1.211.41 1.905.79v-3.47h-2.139V1.245c1.211-.117 2.192-.264 2.944-.44A18.398 18.398 0 00172.529 0h1.421zm-4.687 17.314v-4.907c0-.615-.044-1.05-.132-1.303-.117-.362-.386-.68-.806-.953a2.427 2.427 0 00-1.377-.41 2.46 2.46 0 00-1.465.484c-.449.312-.805.796-1.069 1.45-.264.654-.395 1.47-.395 2.446 0 1.357.297 2.446.893 3.267.459.644 1.069.966 1.831.966.332 0 .65-.053.952-.16.303-.118.826-.41 1.568-.88z" fill="#fff"/>
</svg>
