<svg fill="none" xmlns="http://www.w3.org/2000/svg" viewBox="0 0 279 46">
  <path d="M11.953 15.258a2.9 2.9 0 00-1.43.351c-.421.235-.632.657-.632 1.266 0 .5.117.883.351 1.148.235.266.57.493 1.008.68.469.203.96.352 1.477.445a36.49 36.49 0 011.5.305c1.437.313 2.78.844 4.03 1.594a8.992 8.992 0 013.024 2.86c.782 1.155 1.172 2.53 1.172 4.124 0 2.14-.484 3.844-1.453 5.11-.969 1.265-2.258 2.172-3.867 2.718-1.594.547-3.344.82-5.25.82-.485 0-1.156-.062-2.016-.187-.844-.125-1.469-.297-1.875-.515H7.97c-.157-.079-.414-.164-.774-.258-.36-.094-.625-.14-.797-.14-.484 0-.898.187-1.242.562-.343.39-.765.586-1.265.586-.672 0-1.204-.22-1.594-.657a4.671 4.671 0 01-.867-1.547c-.188-.609-.36-1.171-.516-1.687-.11-.438-.234-.867-.375-1.29a4.34 4.34 0 01-.21-1.335c0-.813.218-1.469.655-1.969.438-.5 1.07-.75 1.899-.75.812 0 1.484.18 2.015.54.532.343 1 .773 1.407 1.288.422.516.843 1.04 1.265 1.57a6.11 6.11 0 001.57 1.313c.61.344 1.376.516 2.297.516.641 0 1.126-.188 1.454-.563.328-.39.492-.89.492-1.5 0-.875-.235-1.437-.703-1.687-.47-.25-1.07-.446-1.805-.586a43.22 43.22 0 01-3.844-.938c-1.203-.36-2.273-.851-3.21-1.476a6.784 6.784 0 01-2.204-2.485C1.086 22.454.82 21.125.82 19.5c0-1.922.524-3.484 1.57-4.688 1.047-1.218 2.376-2.117 3.985-2.695a14.657 14.657 0 014.945-.867c.64 0 1.266.023 1.875.07a7.646 7.646 0 011.852.375c.078.016.258.078.539.188.297.11.586.219.867.328l.422.14c.516 0 .953-.18 1.313-.539.375-.374.82-.562 1.335-.562.657 0 1.141.258 1.454.773.312.5.53 1.086.656 1.758.14.672.25 1.242.328 1.711.062.36.125.727.187 1.102.063.36.094.718.094 1.078a3.76 3.76 0 01-.445 1.781c-.281.547-.79.82-1.524.82s-1.382-.25-1.945-.75a20.31 20.31 0 01-1.687-1.757 9.845 9.845 0 00-1.946-1.735c-.734-.515-1.648-.773-2.742-.773zm21.049-4.008c.64 0 1.133.219 1.476.656.36.438.54.961.54 1.57v15.47c0 .437.015.882.046 1.335.047.438.227.82.54 1.149.406.437.742.78 1.007 1.03.282.25.422.72.422 1.407 0 .688-.219 1.219-.656 1.594-.422.36-.969.539-1.64.539h-9.962c-.672 0-1.226-.18-1.664-.54-.422-.358-.633-.89-.633-1.593 0-.672.133-1.14.399-1.406a31.7 31.7 0 011.031-1.031c.313-.313.484-.703.516-1.172.047-.469.07-.906.07-1.313v-8.18c0-.312-.023-.632-.07-.96a1.54 1.54 0 00-.399-.867.692.692 0 00-.234-.188 1.091 1.091 0 01-.211-.164 7.631 7.631 0 00-.96-.867c-.282-.235-.423-.64-.423-1.219 0-.625.195-1.11.586-1.453.39-.344.852-.617 1.383-.82l5.062-2.04a21.453 21.453 0 011.852-.632 6.328 6.328 0 011.922-.305zm-3.516-.094c-1 0-2.008-.148-3.023-.445-1.016-.297-1.867-.79-2.555-1.477-.672-.703-1.008-1.648-1.008-2.836 0-1.187.344-2.117 1.032-2.789.687-.687 1.539-1.171 2.554-1.453a11.208 11.208 0 013-.422c.985 0 1.985.141 3 .422 1.032.281 1.89.766 2.578 1.453.703.672 1.055 1.602 1.055 2.79 0 1.203-.344 2.156-1.031 2.859-.688.687-1.547 1.18-2.578 1.476a11.291 11.291 0 01-3.024.422zm18.424.094c.64 0 1.125.227 1.453.68.344.437.516.953.516 1.547v2.367a27.918 27.918 0 014.031-3.164c1.484-.953 2.93-1.43 4.336-1.43 1.672 0 3.008.484 4.008 1.453 1 .969 1.695 2.149 2.086 3.54a35.993 35.993 0 012.672-2.368A14.804 14.804 0 0169.988 12c1.031-.5 2.078-.75 3.14-.75 1.485 0 2.704.39 3.657 1.172.969.765 1.68 1.758 2.133 2.976a10.37 10.37 0 01.703 3.797v9.75c0 .36.023.813.07 1.36.047.53.219.922.516 1.172v.023c.344.36.648.71.914 1.055.266.328.398.765.398 1.312 0 .688-.21 1.219-.632 1.594-.422.36-.97.539-1.641.539h-9.633c-.64 0-1.14-.195-1.5-.586-.36-.406-.539-.922-.539-1.547 0-.578.133-1.023.398-1.336.282-.312.555-.656.82-1.031.266-.39.4-.953.4-1.688v-8.085a7.28 7.28 0 00-.141-1.383 2.93 2.93 0 00-.563-1.29c-.281-.359-.703-.538-1.266-.538-.515 0-.976.14-1.382.422-.39.28-.758.593-1.102.937v9.727c0 .828.133 1.445.399 1.851.265.406.53.766.796 1.078.266.313.399.758.399 1.336 0 .64-.18 1.156-.54 1.547-.343.39-.843.586-1.5.586H54.73c-.656 0-1.156-.195-1.5-.586-.343-.406-.515-.922-.515-1.547 0-.578.132-1.023.398-1.336.266-.328.531-.68.797-1.054.266-.375.398-.93.398-1.665v-8.085a7.28 7.28 0 00-.14-1.383 2.93 2.93 0 00-.563-1.29c-.28-.359-.703-.538-1.265-.538-.5 0-.953.14-1.36.422a5.74 5.74 0 00-1.101.937v9.727c0 .843.133 1.468.398 1.875.266.406.531.765.797 1.078.266.297.398.734.398 1.312 0 .625-.171 1.14-.515 1.547-.344.39-.844.586-1.5.586h-9.633c-.672 0-1.219-.18-1.64-.54-.422-.374-.633-.905-.633-1.593 0-.687.156-1.195.468-1.523.328-.328.649-.68.961-1.055.313-.39.47-1 .47-1.828v-8.695c0-.703-.11-1.227-.33-1.57a2.841 2.841 0 00-.75-.844 4.473 4.473 0 01-.75-.68c-.218-.266-.327-.656-.327-1.172 0-.64.187-1.125.562-1.453a5.2 5.2 0 011.383-.82l4.945-2.04c.594-.25 1.196-.468 1.805-.656a6.656 6.656 0 011.922-.281zm44.111 0c.906 0 1.469.328 1.688.984.234.641.351 1.32.351 2.04v.257a12.317 12.317 0 013.235-2.367c1.203-.61 2.547-.914 4.031-.914 1.625 0 3.047.344 4.266 1.031a9.095 9.095 0 013.023 2.742 12.478 12.478 0 011.828 3.844c.406 1.406.609 2.836.609 4.29 0 2.405-.476 4.64-1.429 6.702-.953 2.047-2.336 3.696-4.149 4.946-1.797 1.25-3.976 1.875-6.539 1.875-1.625 0-3.093-.336-4.406-1.008v2.531c0 .547.016.961.047 1.242.031.297.125.563.281.797.156.25.422.578.797.985.297.312.516.593.656.843s.211.602.211 1.055c0 .672-.219 1.195-.656 1.57-.438.375-.984.563-1.64.563H84.24c-.672 0-1.227-.18-1.664-.54-.438-.359-.656-.89-.656-1.593 0-.563.101-.984.304-1.266a4.72 4.72 0 01.727-.75c.266-.218.5-.507.703-.867.219-.36.328-.89.328-1.594V20.766c0-.72-.117-1.25-.351-1.594a2.566 2.566 0 00-.82-.82 4.42 4.42 0 01-.821-.68c-.234-.25-.352-.64-.352-1.172 0-.594.204-1.07.61-1.43.422-.36.875-.64 1.36-.843l4.64-2.04a12.756 12.756 0 011.828-.656 6.896 6.896 0 011.945-.281zm4.383 6.094c-.672 0-1.297.226-1.875.68v12.374c.297.282.625.508.984.68.36.172.758.258 1.196.258.765 0 1.375-.25 1.828-.75.469-.516.82-1.156 1.055-1.922.25-.766.414-1.539.492-2.32.078-.782.117-1.453.117-2.016 0-.61-.047-1.305-.141-2.086a10.227 10.227 0 00-.539-2.297c-.265-.75-.648-1.367-1.148-1.851-.5-.5-1.156-.75-1.969-.75zM122.726.75c.641 0 1.133.219 1.477.656.359.438.539.961.539 1.57v25.97c0 .452.023.898.07 1.335.047.422.242.805.586 1.149.422.422.781.765 1.078 1.03.313.25.469.72.469 1.407 0 .703-.219 1.235-.656 1.594-.438.36-.992.539-1.664.539h-10.313c-.672 0-1.226-.18-1.664-.54-.437-.358-.656-.89-.656-1.593 0-.594.109-1.023.328-1.289.219-.281.477-.523.773-.726a2.72 2.72 0 00.774-.844c.219-.375.328-.961.328-1.758V10.242c0-.75-.125-1.297-.375-1.64a2.459 2.459 0 00-.891-.774 4.593 4.593 0 01-.867-.633c-.25-.25-.375-.648-.375-1.195 0-.625.203-1.11.61-1.453a4.909 4.909 0 011.382-.82l5.227-2.04c.625-.25 1.25-.468 1.875-.656a6.73 6.73 0 011.945-.281zm13.362 38.719c.593 0 1.062-.266 1.406-.797.344-.531.64-1.117.89-1.758l-9.539-18.422c-.281-.547-.711-1.023-1.289-1.43a16.945 16.945 0 01-1.593-1.312c-.485-.453-.727-1-.727-1.64 0-.704.219-1.227.656-1.57.438-.36.992-.54 1.664-.54h12.539c.672 0 1.227.172 1.664.516.438.343.657.867.657 1.57 0 .625-.141 1.086-.422 1.383-.281.297-.61.523-.985.68-.359.14-.679.304-.961.492-.281.172-.421.445-.421.82 0 .437.07.875.211 1.312.14.438.312.86.515 1.266l3.188 6.352 2.882-6a5.038 5.038 0 00.493-2.203c0-.657-.164-1.11-.493-1.36a3.523 3.523 0 00-1.101-.586 3.378 3.378 0 01-1.102-.633c-.312-.296-.468-.812-.468-1.546 0-.704.218-1.22.656-1.547.453-.344 1.008-.516 1.664-.516h6.844c.672 0 1.218.18 1.64.54.438.343.657.866.657 1.57 0 .546-.102.953-.305 1.218-.203.25-.492.547-.867.89-.672.626-1.18 1.188-1.524 1.688-.344.485-.711 1.14-1.101 1.969l-6.375 13.453c-.578 1.219-1.196 2.516-1.852 3.89a25 25 0 01-2.226 3.891c-.844 1.22-1.852 2.211-3.024 2.977-1.172.781-2.57 1.172-4.195 1.172-1.5 0-2.86-.29-4.078-.867a6.962 6.962 0 01-2.883-2.532c-.703-1.109-1.055-2.445-1.055-4.007 0-1.22.313-2.258.938-3.118.64-.859 1.617-1.289 2.929-1.289.86 0 1.563.203 2.11.61a5.085 5.085 0 011.383 1.5c.375.593.703 1.187.984 1.78.297.61.594 1.118.891 1.524.312.407.687.61 1.125.61zm39.706-28.219c.641 0 1.125.227 1.453.68.344.437.516.953.516 1.547v2.367a27.97 27.97 0 014.031-3.164c1.485-.953 2.93-1.43 4.336-1.43 1.672 0 3.008.484 4.008 1.453 1 .969 1.695 2.149 2.086 3.54a36.015 36.015 0 012.672-2.368A14.803 14.803 0 01197.872 12c1.032-.5 2.079-.75 3.141-.75 1.484 0 2.703.39 3.656 1.172.969.765 1.68 1.758 2.133 2.976a10.37 10.37 0 01.703 3.797v9.75c0 .36.024.813.071 1.36.046.53.218.922.515 1.172v.023c.344.36.649.71.914 1.055.266.328.399.765.399 1.312 0 .688-.211 1.219-.633 1.594-.422.36-.969.539-1.641.539h-9.633c-.64 0-1.14-.195-1.5-.586-.359-.406-.539-.922-.539-1.547 0-.578.133-1.023.399-1.336.281-.312.555-.656.82-1.031.266-.39.399-.953.399-1.688v-8.085a7.26 7.26 0 00-.141-1.383c-.094-.5-.281-.93-.563-1.29-.281-.359-.703-.538-1.265-.538-.516 0-.977.14-1.383.422a8.954 8.954 0 00-1.102.937v9.727c0 .828.133 1.445.399 1.851.266.406.531.766.797 1.078.265.313.398.758.398 1.336 0 .64-.179 1.156-.539 1.547-.344.39-.844.586-1.5.586h-9.562c-.657 0-1.157-.195-1.5-.586-.344-.406-.516-.922-.516-1.547 0-.578.133-1.023.398-1.336.266-.328.532-.68.797-1.054.266-.375.399-.93.399-1.665v-8.085a7.26 7.26 0 00-.141-1.383c-.094-.5-.281-.93-.562-1.29-.282-.359-.703-.538-1.266-.538-.5 0-.953.14-1.359.422a5.713 5.713 0 00-1.102.937v9.727c0 .843.133 1.468.399 1.875.265.406.531.765.796 1.078.266.297.399.734.399 1.312 0 .625-.172 1.14-.516 1.547-.344.39-.844.586-1.5.586h-9.633c-.671 0-1.218-.18-1.64-.54-.422-.374-.633-.905-.633-1.593 0-.687.156-1.195.469-1.523.328-.328.648-.68.961-1.055.312-.39.468-1 .468-1.828v-8.695c0-.703-.109-1.227-.328-1.57a2.822 2.822 0 00-.75-.844 4.489 4.489 0 01-.75-.68c-.218-.266-.328-.656-.328-1.172 0-.64.188-1.125.563-1.453.39-.328.851-.602 1.382-.82l4.946-2.04c.594-.25 1.195-.468 1.804-.656a6.658 6.658 0 011.922-.281zm33.565 19.36c0-1.438.336-2.633 1.008-3.587a7.374 7.374 0 012.625-2.32 12.4 12.4 0 013.539-1.265 18.856 18.856 0 014.711-.352c.359 0 .71.031 1.054.094v-6.094c0-.39-.086-.844-.258-1.36-.156-.515-.484-.773-.984-.773-.484 0-.789.203-.914.61-.109.39-.164.765-.164 1.124v.493c.016.156.023.32.023.492 0 1.61-.554 2.742-1.664 3.398-1.109.64-2.375.961-3.797.961-1.187 0-2.218-.265-3.093-.797-.875-.53-1.313-1.468-1.313-2.812 0-.531.102-1.047.305-1.547.219-.5.492-.945.82-1.336.953-1.156 2.149-2.039 3.586-2.648a18.15 18.15 0 014.57-1.243 31.512 31.512 0 014.524-.351c1.594 0 3.055.226 4.383.68 1.328.453 2.39 1.21 3.187 2.273.797 1.047 1.195 2.46 1.195 4.242v10.805c0 .265.063.5.188.703.125.203.336.305.633.305.234 0 .429-.07.586-.211a.876.876 0 01.609-.235c.453 0 .789.157 1.008.47.234.312.351.679.351 1.1 0 1.094-.335 2.04-1.007 2.837a6.301 6.301 0 01-2.461 1.78 7.501 7.501 0 01-2.977.634c-1.172 0-2.359-.258-3.562-.774-1.188-.515-2.008-1.32-2.461-2.414-.797 1.11-1.891 1.922-3.282 2.438-1.375.5-2.726.75-4.054.75a8.63 8.63 0 01-3.422-.68 6.07 6.07 0 01-2.531-2.063c-.641-.906-.961-2.015-.961-3.328zm10.57-2.063c0 .625.148 1.219.445 1.781.297.547.805.82 1.524.82.14 0 .273-.015.398-.046V26.25a2.132 2.132 0 00-.82-.164c-.594 0-1 .297-1.219.89-.219.579-.328 1.102-.328 1.57zm25.854-17.297c.64 0 1.132.219 1.476.656.359.438.539.961.539 1.57v15.47c0 .437.016.882.047 1.335.047.438.227.82.539 1.149.406.437.742.78 1.008 1.03.281.25.422.72.422 1.407 0 .688-.219 1.219-.656 1.594-.422.36-.969.539-1.641.539h-9.961c-.672 0-1.227-.18-1.664-.54-.422-.358-.633-.89-.633-1.593 0-.672.133-1.14.399-1.406.265-.281.609-.625 1.031-1.031.312-.313.484-.703.515-1.172.047-.469.071-.906.071-1.313v-8.18c0-.312-.024-.632-.071-.96a1.533 1.533 0 00-.398-.867.703.703 0 00-.234-.188 1.051 1.051 0 01-.211-.164 7.631 7.631 0 00-.961-.867c-.282-.235-.422-.64-.422-1.219 0-.625.195-1.11.586-1.453.39-.344.851-.617 1.383-.82l5.062-2.04a21.44 21.44 0 011.852-.632 6.325 6.325 0 011.922-.305zm-3.516-.094c-1 0-2.008-.148-3.024-.445-1.015-.297-1.867-.79-2.554-1.477-.672-.703-1.008-1.648-1.008-2.836 0-1.187.344-2.117 1.031-2.789.688-.687 1.539-1.171 2.555-1.453a11.211 11.211 0 013-.422c.984 0 1.984.141 3 .422 1.031.281 1.891.766 2.578 1.453.703.672 1.055 1.602 1.055 2.79 0 1.203-.344 2.156-1.032 2.859-.687.687-1.546 1.18-2.578 1.476a11.284 11.284 0 01-3.023.422zm7.994 13.617c0-2.375.461-4.585 1.383-6.632.922-2.063 2.265-3.727 4.031-4.993 1.766-1.265 3.922-1.898 6.469-1.898 1.531 0 2.929.328 4.195.984v-1.992c0-.687-.117-1.203-.351-1.547a2.793 2.793 0 00-.774-.82 6.658 6.658 0 01-.773-.703c-.219-.266-.328-.656-.328-1.172 0-.64.187-1.125.562-1.453a4.514 4.514 0 011.383-.82l5.086-2.04a18.28 18.28 0 011.828-.656 6.655 6.655 0 011.922-.281c.64 0 1.125.227 1.453.68.344.437.516.953.516 1.547v26.132c0 .766.054 1.297.164 1.594.109.297.429.727.961 1.29.312.327.531.609.656.843.125.219.187.562.187 1.031 0 .672-.218 1.196-.656 1.57-.437.376-.984.563-1.641.563h-5.25c-.875 0-1.718-.266-2.531-.797-.797-.547-1.359-1.234-1.687-2.062a12.867 12.867 0 01-3.258 2.554c-1.203.657-2.555.985-4.055.985-1.594 0-2.992-.344-4.195-1.032a9.147 9.147 0 01-2.953-2.789 13.365 13.365 0 01-1.758-3.867 15.686 15.686 0 01-.586-4.219zm10.875-1.171c0 .562.039 1.242.117 2.039a13.4 13.4 0 00.492 2.32c.25.75.61 1.383 1.078 1.898.485.5 1.11.75 1.875.75.594 0 1.141-.203 1.641-.609V17.484a3.191 3.191 0 00-.891-.632 2.286 2.286 0 00-1.078-.258c-.718 0-1.297.265-1.734.797-.422.515-.742 1.164-.961 1.945a13.19 13.19 0 00-.445 2.32c-.063.782-.094 1.43-.094 1.946z" fill="#fff"/>
  <path d="M155.683 19.875h8.578c.453 0 .836.11 1.149.328.328.203.492.555.492 1.055a3 3 0 01-.188 1.031c-.109.344-.211.688-.304 1.031-.141.5-.305 1.016-.493 1.547a3.701 3.701 0 01-.796 1.313c-.344.343-.844.515-1.5.515h-8.602c-.453 0-.844-.101-1.172-.304-.312-.22-.469-.578-.469-1.078 0-.438.063-.86.188-1.266a27.6 27.6 0 01.445-1.195v-.047a1.09 1.09 0 00.141-.422c.125-.656.39-1.235.797-1.735.422-.515 1-.773 1.734-.773z" fill="#F35E96"/>
</svg>
