<svg fill="none" xmlns="http://www.w3.org/2000/svg" viewBox="0 0 141 23">
  <path d="M8.191 5.508h1.536l.949 3.258-2.215.89a4.711 4.711 0 00-1.594-1.594c-.633-.39-1.262-.585-1.887-.585-.414 0-.722.07-.925.21-.203.141-.305.31-.305.504 0 .164.07.317.21.457.15.141.45.29.903.446l3.223 1.148c.57.203 1.117.457 1.64.762.524.305.915.68 1.172 1.125.266.437.399.953.399 1.547 0 1.062-.406 1.933-1.219 2.613-.953.797-2.14 1.195-3.562 1.195-1.22 0-2.282-.308-3.188-.925L3 17.203H1.441L0 13.36l2.215-.937c.555.867 1.238 1.55 2.05 2.05.813.493 1.56.739 2.239.739.422 0 .777-.098 1.066-.293.22-.156.328-.34.328-.55 0-.18-.085-.352-.257-.516-.172-.165-.551-.348-1.137-.551l-2.531-.88c-1.399-.491-2.352-1.015-2.86-1.57a2.9 2.9 0 01-.75-1.992c0-.984.395-1.812 1.184-2.484.898-.766 2.008-1.148 3.328-1.148 1.172 0 2.176.265 3.012.796l.304-.515zM15.136 0c.594 0 1.098.21 1.512.633.422.414.633.918.633 1.512a2.09 2.09 0 01-.633 1.535 2.058 2.058 0 01-1.512.62 2.097 2.097 0 01-1.523-.62 2.096 2.096 0 01-.622-1.524c0-.586.215-1.09.645-1.511.43-.43.93-.645 1.5-.645zm1.898 5.227v8.66c0 .414.024.668.07.761a.495.495 0 00.247.223c.125.047.398.07.82.07h.633v2.262h-7.242v-2.262h.62c.407 0 .665-.02.774-.058a.486.486 0 00.258-.223c.055-.101.082-.305.082-.61V8.46h-1.734V6.259a13.918 13.918 0 001.77-.2 12.18 12.18 0 001.523-.363c.289-.093.644-.25 1.066-.468h1.113zm7.273 0v1.558a7.828 7.828 0 012.074-1.172 6.186 6.186 0 012.145-.386c.46 0 .902.07 1.324.21.43.133.785.31 1.066.528.29.219.551.515.786.89.757-.578 1.484-.992 2.18-1.242a6.058 6.058 0 012.12-.386c.625 0 1.192.113 1.7.34.507.226.918.535 1.23.925.32.383.527.801.621 1.254.063.281.094.691.094 1.23v4.852c0 .399.027.656.082.774a.611.611 0 00.305.27c.101.046.386.07.855.07h.516v2.261h-6.856v-2.262c.508 0 .828-.023.961-.07a.576.576 0 00.293-.246c.063-.117.094-.367.094-.75V9.621c0-.492-.035-.816-.106-.973-.062-.164-.191-.3-.386-.41a1.257 1.257 0 00-.68-.175c-.305 0-.633.07-.984.21-.352.133-.871.43-1.559.891v4.582c0 .453.031.738.094.856a.607.607 0 00.328.27c.094.038.402.062.926.07v2.261h-6.434v-2.262c.531-.007.856-.035.973-.082a.51.51 0 00.27-.257c.062-.125.093-.41.093-.856v-4.02c0-.617-.055-1.027-.164-1.23-.172-.305-.477-.457-.914-.457-.219 0-.45.027-.691.082-.243.055-.481.14-.715.258-.125.062-.446.266-.961.61l-.27.175v4.582c0 .438.024.711.07.82.047.11.137.2.27.27.14.07.379.105.715.105h.316v2.262h-6.844v-2.262h.458c.484 0 .785-.023.902-.07a.556.556 0 00.281-.27c.063-.132.094-.417.094-.855V8.473h-1.735V6.21c1.43-.133 2.75-.461 3.962-.984h1.101zm22.53 0v1.3c.891-.547 1.57-.898 2.04-1.054a4.647 4.647 0 011.523-.246c1.367 0 2.48.503 3.34 1.511.984 1.157 1.476 2.633 1.476 4.43 0 1.719-.43 3.156-1.289 4.313-.984 1.335-2.304 2.003-3.96 2.003-.532 0-.997-.062-1.395-.187-.399-.117-.832-.336-1.3-.656v2.355c0 .469.023.75.07.844.054.117.14.2.257.246.125.055.43.082.914.082h.551v2.262h-7.289v-2.262h.398c.54 0 .864-.023.973-.07a.465.465 0 00.27-.27c.07-.133.105-.41.105-.832v-10.5h-1.746V6.223a17.838 17.838 0 002.156-.375 11.498 11.498 0 001.805-.621h1.102zm.434 3.656v3.82c0 .602.055 1.031.164 1.29.117.25.313.456.586.62.281.157.602.235.961.235.633 0 1.156-.293 1.57-.88.422-.585.633-1.476.633-2.671 0-1.11-.183-1.93-.55-2.461-.36-.54-.805-.809-1.337-.809-.609 0-1.285.286-2.027.856zM61.2 0v13.71c0 .462.02.735.059.821.054.156.175.27.363.34.117.047.434.07.95.07h.41v2.262h-7.255v-2.262h.446c.468 0 .77-.027.902-.082a.604.604 0 00.293-.28c.063-.134.094-.423.094-.868V3.258h-1.735V.984C57.126.891 58.571.563 60.063 0H61.2z" fill="#fff"/>
  <path d="M62.203 5.508h7.313V7.77h-.48c-.438 0-.716.03-.833.093-.11.055-.164.137-.164.246 0 .094.082.34.246.739l1.758 4.23 1.84-4.23c.14-.32.21-.551.21-.692a.301.301 0 00-.175-.281c-.117-.07-.387-.105-.809-.105h-.668V5.508h6.317V7.77c-.555.007-.88.027-.973.058a.67.67 0 00-.328.176c-.086.086-.226.324-.422.715l-5.297 10.863c-.554 1.133-1.16 1.926-1.816 2.379-.664.453-1.453.68-2.367.68-.89 0-1.614-.239-2.168-.715-.547-.469-.82-1-.82-1.594 0-.469.163-.875.492-1.219a1.595 1.595 0 011.183-.504c.313 0 .617.078.914.235.196.101.395.273.598.515.125.157.223.254.293.293.078.047.152.07.222.07.165 0 .325-.078.481-.234.234-.242.5-.683.797-1.324l.445-.96-3.984-8.356c-.195-.422-.348-.688-.457-.797a.773.773 0 00-.352-.223c-.133-.039-.465-.058-.996-.058V5.508z" fill="#fff"/>
  <path d="M76.847 9.844h6.351v2.8h-6.351v-2.8z" fill="#F35E96"/>
  <path d="M89.37 5.227v1.558a7.829 7.829 0 012.074-1.172 6.187 6.187 0 012.144-.386c.461 0 .903.07 1.325.21.43.133.785.31 1.066.528.289.219.55.515.785.89.758-.578 1.484-.992 2.18-1.242a6.058 6.058 0 012.121-.386c.625 0 1.191.113 1.699.34.508.226.918.535 1.231.925.32.383.527.801.621 1.254.062.281.093.691.093 1.23v4.852c0 .399.028.656.082.774a.612.612 0 00.305.27c.102.046.387.07.856.07h.515v2.261h-6.855v-2.262c.508 0 .828-.023.961-.07a.581.581 0 00.293-.246c.062-.117.093-.367.093-.75V9.621c0-.492-.035-.816-.105-.973-.063-.164-.192-.3-.387-.41a1.256 1.256 0 00-.68-.175c-.304 0-.632.07-.984.21-.351.133-.871.43-1.558.891v4.582c0 .453.03.738.093.856a.607.607 0 00.328.27c.094.038.403.062.926.07v2.261H92.16v-2.262c.53-.007.855-.035.972-.082a.51.51 0 00.27-.257c.062-.125.094-.41.094-.856v-4.02c0-.617-.055-1.027-.165-1.23-.171-.305-.476-.457-.914-.457-.218 0-.449.027-.691.082-.242.055-.48.14-.715.258-.125.062-.445.266-.96.61l-.27.175v4.582c0 .438.023.711.07.82.047.11.137.2.27.27.14.07.378.105.714.105h.317v2.262h-6.844v-2.262h.457c.484 0 .785-.023.902-.07a.556.556 0 00.282-.27c.062-.132.093-.417.093-.855V8.473h-1.734V6.21c1.43-.133 2.75-.461 3.961-.984h1.102zm24.557 4.886v-.867c0-.516-.043-.871-.129-1.066-.085-.196-.242-.356-.468-.48-.227-.134-.508-.2-.844-.2-.258 0-.492.043-.703.129a1.41 1.41 0 00-.504.328c-.125.133-.27.39-.434.773-.211.485-.465.832-.761 1.043a1.703 1.703 0 01-1.032.317c-.5 0-.91-.156-1.23-.469-.32-.312-.481-.7-.481-1.16 0-.524.164-.988.493-1.395.437-.539 1.089-.98 1.957-1.324.867-.344 1.843-.515 2.929-.515 1.086 0 2.008.175 2.766.527.766.351 1.297.773 1.594 1.266.304.484.457 1.226.457 2.226v4.195c0 .516.027.848.082.996.054.141.172.266.351.376.18.109.379.164.598.164.219 0 .512-.063.879-.188v2.285a6.303 6.303 0 01-1.91.317c-.719 0-1.332-.118-1.84-.352a3.253 3.253 0 01-1.277-1.055c-.782.508-1.493.871-2.133 1.09a5.804 5.804 0 01-1.84.317c-1.117 0-2.02-.313-2.707-.938-.688-.633-1.031-1.41-1.031-2.332 0-.523.117-1.004.351-1.441.242-.438.598-.82 1.067-1.149.476-.328 1.207-.617 2.191-.867.992-.258 2.195-.441 3.609-.55zm0 1.946c-1.023.148-1.746.3-2.168.457-.421.148-.722.34-.902.574-.18.226-.269.46-.269.703 0 .313.117.574.351.785.234.211.551.317.949.317.258 0 .555-.067.891-.2a7.272 7.272 0 001.148-.586v-2.05zM123.169 0c.593 0 1.097.21 1.511.633.422.414.633.918.633 1.512a2.09 2.09 0 01-.633 1.535 2.057 2.057 0 01-1.511.62 2.098 2.098 0 01-1.524-.62 2.097 2.097 0 01-.621-1.524c0-.586.215-1.09.645-1.511.429-.43.929-.645 1.5-.645zm1.898 5.227v8.66c0 .414.024.668.07.761a.494.494 0 00.247.223c.125.047.398.07.82.07h.633v2.262h-7.242v-2.262h.621c.406 0 .664-.02.773-.058a.488.488 0 00.258-.223c.055-.101.082-.305.082-.61V8.46h-1.734V6.259a13.902 13.902 0 003.292-.563c.29-.093.645-.25 1.067-.468h1.113zM139.16 0v13.629c0 .539.024.867.07.984.047.11.125.192.235.246.117.055.418.082.902.082h.551v2.262l-5.086.176v-1.207c-.734.492-1.379.836-1.934 1.031a5.164 5.164 0 01-1.664.281 4.523 4.523 0 01-2.484-.726c-.75-.492-1.367-1.219-1.852-2.18-.476-.96-.714-2.027-.714-3.2 0-1.187.242-2.26.726-3.222.492-.969 1.129-1.699 1.91-2.191a4.881 4.881 0 012.637-.738c.5 0 .977.062 1.43.187.461.117.968.328 1.523.633V3.27h-1.711V.996c.969-.094 1.754-.21 2.356-.351A14.728 14.728 0 00138.023 0h1.137zm-3.75 13.852V9.926c0-.492-.035-.84-.105-1.043-.094-.29-.309-.543-.645-.762a1.94 1.94 0 00-1.101-.328c-.422 0-.813.129-1.172.387-.36.25-.645.636-.856 1.16-.211.523-.316 1.176-.316 1.957 0 1.086.238 1.957.715 2.613.367.516.855.774 1.465.774.265 0 .519-.043.761-.13.242-.093.66-.327 1.254-.702z" fill="#fff"/>
</svg>
