<svg fill="none" xmlns="http://www.w3.org/2000/svg" viewBox="0 0 12 12">
  <g clip-path="url(#pVNnoDzzh620a)">
    <path d="M6.266 6.296h0a2.668 2.668 0 001.688 1.687s0 0 0 0l.8.267-.8.266h0a2.668 2.668 0 00-1.688 1.689l-.266.8-.267-.801h0a2.667 2.667 0 00-1.687-1.688h0l-.801-.266.8-.267h0a2.668 2.668 0 001.688-1.687h0l.267-.8.266.8zM2.594 2.594A1.8 1.8 0 003 1.973 1.8 1.8 0 004.027 3 1.8 1.8 0 003 4.027 1.8 1.8 0 001.972 3a1.8 1.8 0 00.622-.406zM3.192.976h0L3 .913h0L2.844.861 3 .912h0l.192.064zm4.724.524c.13-.09.243-.204.334-.333.09.13.204.242.333.333a1.366 1.366 0 00-.333.333 1.367 1.367 0 00-.334-.333z" fill="#F2C40F" stroke="#F2C40F"/>
  </g>
  <defs>
    <clipPath id="pVNnoDzzh620a">
      <path fill="#fff" d="M0 0h12v12H0z"/>
    </clipPath>
  </defs>
</svg>
