<svg fill="none" xmlns="http://www.w3.org/2000/svg" viewBox="0 0 29 29">
  <g clip-path="url(#0NkwEaO1-3Mva)">
    <path d="M13.359 2.255a.7.7 0 011.293 0l2.894 6.957a.7.7 0 00.59.43l7.511.601a.7.7 0 01.4 1.23l-5.723 4.902a.7.7 0 00-.225.695l1.748 7.329a.7.7 0 01-1.046.76l-6.43-3.928a.7.7 0 00-.73 0L7.21 25.16a.7.7 0 01-1.047-.76l1.748-7.33a.7.7 0 00-.225-.694l-5.723-4.902a.7.7 0 01.4-1.23l7.51-.602a.7.7 0 00.591-.429l2.894-6.957z" fill="#F7B62D"/>
  </g>
  <defs>
    <clipPath id="0NkwEaO1-3Mva">
      <path fill="#fff" d="M0 0h28.011v28.011H0z"/>
    </clipPath>
  </defs>
</svg>
